<svg xmlns="http://www.w3.org/2000/svg" xmlns:xlink="http://www.w3.org/1999/xlink" width="150" height="150" viewBox="0 0 150 150">
  <defs>
    <clipPath id="clip-path">
      <rect id="Rectangle_2" data-name="Rectangle 2" width="150" height="150" rx="75" transform="translate(158 327)" fill="#fff" stroke="#707070" stroke-width="1"/>
    </clipPath>
  </defs>
  <g id="Mask_Group_1" data-name="Mask Group 1" transform="translate(-158 -327)" clip-path="url(#clip-path)">
    <g id="svgg" transform="translate(172.488 327)">
      <path id="path0" d="M183.141,119.339c-.167.035-.685.138-1.151.229a6.4,6.4,0,0,0-1.091.289c-.133.068-.689.3-1.236.518-5.286,2.1-8.5,7.959-9.925,18.1l-.232,1.645c-.041.289.1.05.4-.673.8-1.944,2.534-4.785,2.913-4.785.064,0,.146-.093.181-.207.28-.9,4.218-3.288,6.323-3.835,9.376-2.439,17.962,1.652,20.222,9.634.152.538.223.1.1-.611-.068-.4-.187-1.122-.264-1.616a41.779,41.779,0,0,0-2.206-8.875c-.254-.687-.462-1.276-.462-1.31s-.294-.624-.654-1.313a12.953,12.953,0,0,0-11.1-7.194,14.829,14.829,0,0,0-1.818.009m-10.3,16.768a1.54,1.54,0,0,1-.274.495,16.786,16.786,0,0,0-2.916,13.232,33.822,33.822,0,0,0,1.861,4.935,70.169,70.169,0,0,0,3.782,6.571,9.009,9.009,0,0,1,.485.783,1.942,1.942,0,0,0,.4.556c.143.068,7.5-8.915,7.5-9.157a21.837,21.837,0,0,0-1.606-2.17c-.883-1.113-1.606-2.049-1.606-2.08a9.032,9.032,0,0,0-.619-.868,12.207,12.207,0,0,1-.816-1.185c-.108-.206-.528-.879-.934-1.5a45.1,45.1,0,0,1-3.569-6.4.246.246,0,0,0-.1-.208,10.462,10.462,0,0,1-.737-1.507c-.582-1.336-.856-1.819-.856-1.5m22.563,1.522c-2.3,5.81-4.538,9.016-17.4,24.913l-9.807,12.116.01.716c.006.394.073,1.3.151,2.019.251,2.329.486,4.567.608,5.789.066.658.2,2,.3,2.991.3,2.915.425,4.165.456,4.549.016.2.085.384.152.412.245.1,22.707-27.847,24.024-29.889,1.1-1.7,2.42-3.9,2.756-4.58.068-.138.275-.541.461-.9,3.765-7.2,3.652-12.711-.387-18.981-.647-1-.575-1.05-1.323.842m-6.417,31.822c-2.016,2.512-3.665,4.6-3.665,4.632,0,.133,13.8,17.167,13.849,17.1s.273-2.227.576-5.531c.057-.617.159-1.66.228-2.318.151-1.439.455-4.457.626-6.206.068-.7.151-1.54.185-1.869l.062-.6-3.951-4.9c-2.173-2.694-4.017-4.892-4.1-4.887s-1.8,2.066-3.811,4.578" transform="translate(-123.887 -80.525)" fill="#ec76ac" fill-rule="evenodd"/>
      <path id="path1" d="M0,74.768v74.768H121.172V0H0V74.768M63.858,38.841a7.692,7.692,0,0,0,.848.341,12.965,12.965,0,0,1,6.149,4.278,11.449,11.449,0,0,1,.879,1.169,5.676,5.676,0,0,0,.409.792,26.853,26.853,0,0,1,2.264,5.87,5.292,5.292,0,0,0,.243.822,4.506,4.506,0,0,1,.211.822c.069.37.237,1.245.373,1.944.435,2.234.5,2.6.624,3.664.249,2.083.273,2.573.133,2.68-.075.057-.136.027-.136-.067A16.761,16.761,0,0,0,73.6,55.978a11.58,11.58,0,0,0-2.566-2.892c-.066,0-.185-.1-.266-.217a11.342,11.342,0,0,0-2.587-1.577.316.316,0,0,1-.263-.145,1.319,1.319,0,0,0-.583-.305,5.413,5.413,0,0,1-.752-.293,2.944,2.944,0,0,0-.666-.22,24.34,24.34,0,0,0-4.6-.633,16.974,16.974,0,0,0-9.088,2.033,14.952,14.952,0,0,0-6.239,8.012,5.445,5.445,0,0,1-.324.89,1.148,1.148,0,0,0-.1.516c0,.291-.032.334-.146.194-.211-.261.251-4.289.742-6.46.065-.288.212-.994.326-1.57a6.636,6.636,0,0,1,.309-1.189.809.809,0,0,0,.1-.4,27.22,27.22,0,0,1,2.751-6.98c.08-.1.349-.5.6-.871a13.9,13.9,0,0,1,6.937-4.862c.308-.083.751-.21.984-.283a28.48,28.48,0,0,1,5.7.111M49.981,56.773c.394.959,1.169,2.589,1.723,3.622s1.006,1.924,1.006,1.982a.193.193,0,0,0,.1.154,4.994,4.994,0,0,1,.553.8c.251.411.586.95.744,1.2l1.053,1.64a49.4,49.4,0,0,0,3.37,4.611,11.37,11.37,0,0,1,1.515,2.214c0,.318-7.4,9.554-7.652,9.554a13.148,13.148,0,0,1-1.86-2.535c-.442-.732-.949-1.551-1.084-1.752-.161-.238-1.681-3.14-1.984-3.788-2.735-5.847-3.009-9.521-1.082-14.505A12.584,12.584,0,0,1,48,56.7a.238.238,0,0,0,.1-.2,5.84,5.84,0,0,1,1.088-1.469,14.519,14.519,0,0,1,.787,1.744m23.19-.436a19.285,19.285,0,0,1,1.791,3.47c.1.292.24.656.307.809a16.238,16.238,0,0,1,.535,8.768,24.1,24.1,0,0,1-1.157,3.439,3.776,3.776,0,0,0-.3.673,62.074,62.074,0,0,1-5.017,8.748c-1.387,1.971-23.223,28.868-23.4,28.825-.232-.055-.211.107-.961-7.516-.138-1.4-.28-2.7-.317-2.893-.106-.553-.437-4.161-.5-5.481l-.059-1.2,1.01-1.223c2.273-2.754,18.63-23.069,19.247-23.9a64.284,64.284,0,0,0,7.27-12.6c.537-1.368.64-1.363,1.558.077m-.042,32.6,3.931,4.9v.822c0,.452-.057,1.293-.125,1.869s-.171,1.585-.228,2.243-.192,2.037-.3,3.065-.251,2.441-.32,3.14c-.546,5.554-.613,6.056-.8,6.056-.169,0-.965-.966-8.5-10.308-3.33-4.131-5.6-7.054-5.574-7.188a115.381,115.381,0,0,1,7.707-9.476c.211-.015,1.2,1.134,4.207,4.878" fill="#fff" fill-rule="evenodd"/>
      <path id="path2" d="M174.455,132.13l-.417.561.454-.515a4.819,4.819,0,0,0,.454-.561c0-.114-.1-.007-.491.515m19.515-.364a3.49,3.49,0,0,0,.394.486l.394.439-.356-.486c-.332-.453-.432-.555-.432-.439m-10.517,6.644a16.777,16.777,0,0,0,1.7,0c.486-.028.121-.052-.812-.052s-1.331.023-.884.052M169.1,148.99a1.049,1.049,0,0,0,.022.571c.141.18.22-.215.13-.646-.078-.372-.079-.372-.152.075m-.175,5.757c0,.535.022.753.049.486a5.844,5.844,0,0,0,0-.972c-.027-.267-.049-.049-.049.486m18.919,3.327-.479.636.515-.591c.479-.55.571-.68.479-.68a6.2,6.2,0,0,0-.515.636m-5.568,1.907c.731.9,1.356,1.645,1.389,1.645s-.537-.74-1.268-1.645-1.356-1.645-1.389-1.645.537.74,1.268,1.645m7.331,15.178a3.333,3.333,0,0,0-.475.673,4.649,4.649,0,0,0,.6-.673,3.335,3.335,0,0,0,.475-.673,4.647,4.647,0,0,0-.6.673m-1.461,1.832-.417.561.454-.515c.423-.48.51-.606.417-.606a4.763,4.763,0,0,0-.454.561m-1.69,2.056a3.333,3.333,0,0,0-.475.673,4.651,4.651,0,0,0,.6-.673,3.335,3.335,0,0,0,.475-.673,4.651,4.651,0,0,0-.6.673M169.793,180.5l-.723.935.757-.892c.7-.829.813-.977.723-.977-.018,0-.359.421-.757.935m15.2.374-.417.561.454-.515a4.818,4.818,0,0,0,.454-.561c0-.114-.1-.007-.491.515M168.4,182.187a3.332,3.332,0,0,0-.475.673,4.653,4.653,0,0,0,.6-.673,3.332,3.332,0,0,0,.475-.673,4.651,4.651,0,0,0-.6.673m9.572,7.365-5.876,7.29,5.907-7.252c3.249-3.989,5.907-7.269,5.907-7.29,0-.105-.476.476-5.938,7.252m15.571,3.626c1.865,2.3,3.419,4.187,3.452,4.187s-1.466-1.884-3.331-4.187-3.419-4.187-3.452-4.187,1.466,1.884,3.331,4.187m-22.114,4.411a3.335,3.335,0,0,0-.475.673,4.648,4.648,0,0,0,.6-.673,3.33,3.33,0,0,0,.475-.673,4.652,4.652,0,0,0-.6.673M198,198.633c.778.989.962,1.156,1.091.986s.123-.183-.01-.09c-.111.078-.463-.24-1.091-.986l-.927-1.1.937,1.191" transform="translate(-123.69 -88.801)" fill="#f6c2dc" fill-rule="evenodd"/>
      <path id="path3" d="M183.146,118.851c-.267.057.224.072,1.091.033a13.633,13.633,0,0,0,1.626-.124,13.187,13.187,0,0,0-2.716.092m3,.107a.816.816,0,0,0,.424,0c.117-.038.021-.068-.212-.068s-.329.031-.212.068m-4.393.2c-.24.095-.252.12-.061.12a1.822,1.822,0,0,0,.545-.12c.24-.095.252-.12.061-.12a1.822,1.822,0,0,0-.545.12m5.453,0a1.933,1.933,0,0,0,.606.117c.272,0,.266-.015-.061-.117-.513-.161-.952-.161-.545,0m-7.07.541a3.469,3.469,0,0,0-.9.436,7.636,7.636,0,0,0,1.873-.726c.112-.139.1-.136-.97.29m8.221-.265c.375.2,1,.351.788.191a2.024,2.024,0,0,0-.606-.227c-.286-.062-.345-.051-.182.036m1.272.446a2.017,2.017,0,0,0,.485.239c.211.07.247.058.121-.039a2.017,2.017,0,0,0-.485-.239c-.211-.07-.247-.058-.121.039m-12.9,1.788c-1.426,1.191-3.579,3.964-3.579,4.609,0,.071.2-.236.442-.681a15.28,15.28,0,0,1,4-4.449c.124-.1.172-.18.105-.181a5.155,5.155,0,0,0-.965.7m15.082-.676c.033.044.5.438,1.03.875a15,15,0,0,1,3.4,4.246,8.314,8.314,0,0,0,.624,1.12,9.8,9.8,0,0,0-1.006-2.036,13.687,13.687,0,0,0-3.807-4.093c-.164-.106-.272-.157-.238-.113m-19.563,7.3a17.089,17.089,0,0,0-.656,1.853,16.106,16.106,0,0,0,.77-1.8,14.367,14.367,0,0,0,.656-1.853,14.9,14.9,0,0,0-.77,1.8m24.662-.884c-.009.083.559,1.675,1.058,2.968l.144.374-.074-.374a23.421,23.421,0,0,0-1.129-2.968m-12.76,2.181a7.985,7.985,0,0,0,1.212,0c.314-.031.026-.055-.64-.055s-.924.025-.572.056m-2,.147a2.189,2.189,0,0,0,.666,0c.183-.034.033-.062-.333-.062s-.516.028-.333.062m4.221-.053a6.518,6.518,0,0,0,1.081.134c.58.045.9.028.727-.039a5.317,5.317,0,0,0-1.808-.095m-6.311.4c-.13.11-.044.124.3.053.6-.124.7-.211.232-.208a.988.988,0,0,0-.535.155m8.613-.1a2.787,2.787,0,0,0,.656.142c.409.058.507.045.3-.04-.3-.127-1.055-.206-.959-.1m-17.5,1.532a6.977,6.977,0,0,0-.269,1.213,5.316,5.316,0,0,0,.361-1.1,6.979,6.979,0,0,0,.269-1.213,5.314,5.314,0,0,0-.361,1.1m7.377-.99c-.153.081-.175.129-.061.129a1.132,1.132,0,0,0,.424-.129c.153-.081.175-.129.061-.129a1.132,1.132,0,0,0-.424.129m11.945-.1a1.674,1.674,0,0,0,.414.154c.265.073.314.059.182-.052-.164-.136-.717-.232-.6-.1m-13.642.835c-.267.156-.43.283-.364.284.165,0,1.121-.551.969-.56a2.208,2.208,0,0,0-.606.276M192.053,131a8.124,8.124,0,0,0,.848.5A15.3,15.3,0,0,1,195.137,133c.17.137.308.215.308.173a9.271,9.271,0,0,0-2-1.5c-.791-.479-1.532-.833-1.393-.666m-16.75,1.2a4.079,4.079,0,0,0-.775.667,14.538,14.538,0,0,0,1.762-1.248c.221-.242-.318.076-.987.581m-4.628,1.244a.99.99,0,0,0-.021.473c.033.041.1-.1.142-.323a.994.994,0,0,0,.02-.473c-.033-.041-.1.1-.141.324m28.063-.235c.006.388.2,1.027.2.673a2.116,2.116,0,0,0-.1-.6c-.064-.183-.1-.212-.1-.075m-25.224.462c-.233.25-.314.389-.181.309.221-.132.771-.777.654-.767a3.661,3.661,0,0,0-.473.458M196.9,134.78a9.292,9.292,0,0,0,.841.972,7.4,7.4,0,0,0-.72-.972,9.288,9.288,0,0,0-.841-.972,7.4,7.4,0,0,0,.72.972m-24.667.346a11.735,11.735,0,0,0-1.347,2.271,9.185,9.185,0,0,0,.665-1.022,12.946,12.946,0,0,1,1.107-1.57c.271-.3.424-.544.34-.539a3.364,3.364,0,0,0-.766.86m-1.915.046c-.1.623,0,.744.106.131a1.353,1.353,0,0,0,.028-.539c-.031-.038-.091.145-.134.408m28.784-.243a2.117,2.117,0,0,0,.1.6c.133.381.133-.012,0-.523-.078-.3-.1-.315-.1-.075m-25.951.574c0,.124,1.45,3.3,1.452,3.18a30.173,30.173,0,0,0-1.4-3.231.052.052,0,0,0-.054.05m23.033-.013c.028.021.214.206.414.411l.364.374-.294-.411c-.161-.226-.348-.411-.414-.411s-.1.017-.07.037m-23.523.609a14.933,14.933,0,0,0-1.166,2.045,4.583,4.583,0,0,0,.523-.785c.255-.432.586-.953.737-1.157a1.582,1.582,0,0,0,.275-.486c0-.169-.032-.136-.37.383m25.307.182c.154.244.44.7.636,1.024s.357.536.357.48a9.573,9.573,0,0,0-1.118-1.83c-.085-.065-.029.082.125.326m-.527,1c.6,1.042,1.1,1.8.962,1.458a22.428,22.428,0,0,0-1.442-2.393,5.159,5.159,0,0,0,.48.935m2.014-.4a2.842,2.842,0,0,0,.116.735q.108.3.035-.374c-.085-.793-.163-.979-.151-.362m-4.13.768c-.232.541-.672,1.462-.978,2.046a12.286,12.286,0,0,0-1.143,2.333,36.668,36.668,0,0,0,2.588-5.307,4.136,4.136,0,0,0-.467.929m-24.922.6c-.042.144-.1.329-.126.411s.035.019.14-.141c.191-.29.248-.532.126-.532-.035,0-.1.118-.14.262m28.581-.187c.032.082.177.469.321.86a3.08,3.08,0,0,0,.319.71,5.668,5.668,0,0,0-.567-1.57q-.131-.15-.073,0m-29.2.523c0,.288.025.406.055.262a1.518,1.518,0,0,0,0-.523c-.031-.144-.055-.026-.055.262m29.926-.075a3.284,3.284,0,0,0,.1.673c.077.3.1.311.1.075a3.285,3.285,0,0,0-.1-.673c-.077-.3-.1-.311-.1-.075m-28.861.816a4.075,4.075,0,0,0-.244.71c0,.143.407-.673.519-1.041.145-.476-.025-.272-.274.33m3.877-.385a3.828,3.828,0,0,0,.556,1.139c.03,0-.027-.185-.127-.411-.263-.6-.428-.879-.43-.728m-4.97.99a1.1,1.1,0,0,0-.091.536c.035.043.124-.139.2-.4a1.5,1.5,0,0,0,.091-.536c-.025-.03-.114.151-.2.4m29.93.039a3.075,3.075,0,0,0,.181.5c.157.371.181.386.182.11a.826.826,0,0,0-.181-.5c-.1-.1-.182-.152-.182-.11m-24.154.711a7.613,7.613,0,0,0,.5.86c.155.225.08.022-.166-.451-.466-.9-.707-1.194-.332-.409m23.764.678c.112.374.22.622.239.55a3.467,3.467,0,0,0-.39-1.23,2.328,2.328,0,0,0,.151.68m-29.222.064c-.274.843-.231.969.057.169a2.367,2.367,0,0,0,.188-.717c-.026-.033-.136.214-.245.548m6.468,1.05a1.635,1.635,0,0,0,.319.449c.033,0-.056-.2-.2-.449a1.635,1.635,0,0,0-.319-.449c-.033,0,.056.2.2.449m15.8.86c-.38.637-1.114,1.8-1.63,2.579-1.606,2.433-1.733,2.644-1.034,1.72a48.453,48.453,0,0,0,3.42-5.458,9.334,9.334,0,0,0-.755,1.159m-22.626-.679a3.152,3.152,0,0,0-.064.642c.006.164.06.037.121-.284.118-.621.068-.935-.058-.357m29.99.193a2.189,2.189,0,0,0,.1.6l.1.3v-.3a2.189,2.189,0,0,0-.1-.6l-.1-.3v.3m-22.479.748c.187.329.669,1.1,1.073,1.72s.824,1.29.935,1.5a12.289,12.289,0,0,0,.767,1.122c.563.745.359.256-.249-.6-.176-.247-.765-1.148-1.31-2-1.179-1.851-1.722-2.627-1.217-1.735m-7.754.405a4.545,4.545,0,0,0-.061.866c.01.4.036.329.11-.3.1-.864.077-1.147-.049-.567m30.624,2.062c0,.864.02,1.217.045.785s.025-1.138,0-1.57-.045-.079-.045.785M169.4,147.653a2.84,2.84,0,0,0,.116.735q.108.3.035-.374c-.085-.793-.163-.979-.151-.361m11.261,1.113a1.228,1.228,0,0,0,.273.5c.15.185.9,1.12,1.657,2.077l1.384,1.74-.445.607c-.595.813-.568.944.04.194.623-.768.647-.668-.5-2.057-.54-.656-1.3-1.649-1.7-2.206s-.715-.941-.715-.853m8.1-.021c-.024.083-2.347,3.013-5.163,6.511s-5.12,6.405-5.12,6.461c0,.1,8.455-10.34,9.8-12.1a3.182,3.182,0,0,0,.588-.938c-.037-.046-.086-.015-.11.068m-19.053.541a3.387,3.387,0,0,0,.185.673c.068.144.078.063.028-.224a3.388,3.388,0,0,0-.185-.673c-.068-.144-.078-.063-.028.224m29.747.839a1.444,1.444,0,0,0-.088.539c.026.032.108-.158.183-.422a1.444,1.444,0,0,0,.088-.539c-.026-.032-.108.158-.183.422m-.595,1.733a4.743,4.743,0,0,0-.332,1.061,3.654,3.654,0,0,0,.423-.948,6.075,6.075,0,0,0,.332-1.061,4.741,4.741,0,0,0-.423.948m-28.617-.834a7.148,7.148,0,0,0,.549,1.477,1.3,1.3,0,0,0-.12-.522c-.2-.6-.423-1.091-.429-.955m.905,2.374a3.3,3.3,0,0,0,.367.748,2.671,2.671,0,0,0-.246-.748,3.305,3.305,0,0,0-.367-.748,2.673,2.673,0,0,0,.246.748m27.067.037c-.214.495-.568,1.271-.789,1.729l-.194.4.253-.374a9.64,9.64,0,0,0,.938-2.094c-.035,0-.129.151-.209.336m-26.389,1.383a59.77,59.77,0,0,0,4.336,7.32,7.875,7.875,0,0,0-.832-1.413c-.25-.281-1.508-2.408-2.369-4-1.174-2.176-1.524-2.762-1.134-1.9M179.7,158.4c-1.762,2.174-3.247,3.919-3.3,3.878s-.1,0-.1.083c0,.417,5.553-6.092,6.531-7.655.39-.623-.106-.038-3.13,3.694m16.936-1.75c-.355.519-1.323,2.344-1.011,1.907a17.229,17.229,0,0,0,1.226-2.168,1.1,1.1,0,0,0-.215.262m-2.6,4.262c-1.385,2.16-23.751,29.924-24.008,29.8-.169-.08-.212.155-.051.278.131.1,22.389-27.4,23.469-29a15.925,15.925,0,0,0,1.826-2.916c-.034,0-.59.824-1.236,1.832m-16.591,2c-.464.616-.845,1.138-.845,1.158s.4-.454.9-1.055a6.474,6.474,0,0,0,.845-1.158,5.835,5.835,0,0,0-.9,1.055m-1.511,1.807c-.233.271-.366.494-.3.495.143,0,.853-.865.771-.94-.029-.026-.243.175-.476.446m13.268,4.09c-2.1,2.588-3.808,4.789-3.789,4.892.051.29,13.828,17.241,13.967,17.185.068-.027.128-.331.134-.675l.012-.625-.049.6c-.027.33-.091.6-.141.6-.094,0-13.829-16.982-13.829-17.1,0-.134,7.387-9.22,7.5-9.22.063,0,1.294,1.455,2.737,3.233s2.643,3.208,2.669,3.177-1.176-1.568-2.669-3.415l-2.715-3.358-3.822,4.7M175.36,165.46a.925.925,0,0,0-.289.4c-.128.3-.116.3.183-.039a2.4,2.4,0,0,0,.319-.411c0-.055,0-.054-.214.051m-.979,1.209c-.223.267-.356.486-.3.486.126,0,.831-.874.752-.933-.028-.021-.234.18-.457.447m-.848,1.084c-.219.247-.35.449-.292.449s.263-.2.454-.449.323-.449.292-.449a2.734,2.734,0,0,0-.454.449m-1.221,1.5a3.9,3.9,0,0,0-.649.9,5.527,5.527,0,0,0,.812-.9,5.366,5.366,0,0,0,.649-.9,7.486,7.486,0,0,0-.812.9m-1.04,1.323c-.133.147-.46.565-.726.93-.327.449-.239.374.273-.23.416-.491.756-.912.756-.935,0-.079-.061-.032-.3.234m28.421,2.041c1.182,1.469,1.665,2,1.134,1.242a34.675,34.675,0,0,0-2.314-2.812,14.322,14.322,0,0,0,1.181,1.57m-30-.1c-.133.147-.46.565-.726.93-.327.449-.239.374.273-.23.416-.491.756-.912.756-.935,0-.079-.061-.032-.3.234m31.283,2.249a5.147,5.147,0,0,0-.068.82c.007.175.061.015.121-.355a3.727,3.727,0,0,0,.068-.82c-.022-.081-.076.079-.121.355m-.267,2.479a4.625,4.625,0,0,0-.022,1.07,2.631,2.631,0,0,0,.151-.911,4.627,4.627,0,0,0,.022-1.07,2.63,2.63,0,0,0-.151.911m-32.265-.519a8.7,8.7,0,0,0,.092,1.047c.073.5.1.561.105.224a7.028,7.028,0,0,0-.092-1.047c-.063-.375-.1-.458-.105-.224m.242,2.542a14.541,14.541,0,0,0,.151,1.5c.087.617.162.953.167.748a14.533,14.533,0,0,0-.151-1.5c-.087-.617-.162-.953-.167-.748m31.673,1.506a4.52,4.52,0,0,0-.029.986,2.668,2.668,0,0,0,.141-.847,4.364,4.364,0,0,0,.029-.986,2.577,2.577,0,0,0-.141.848M169.116,183.3a7.629,7.629,0,0,0,.111,1.034,5.031,5.031,0,0,0-.081-1.558c-.062-.283-.072-.089-.03.523m30.964.523c0,.329.026.446.055.26a2.009,2.009,0,0,0,0-.6c-.03-.143-.054.009-.053.338m-30.78,1.421c0,.288.025.406.055.262a1.519,1.519,0,0,0,0-.523c-.031-.144-.055-.026-.055.262m.107,1.059a6.223,6.223,0,0,0,.113.96c.065.295.076.141.031-.449-.074-.989-.167-1.316-.144-.511m30.36.42a5.148,5.148,0,0,0-.068.82c.007.175.061.015.121-.355a3.729,3.729,0,0,0,.068-.82c-.021-.081-.076.079-.121.355m-30.049,2.484a8.421,8.421,0,0,0,.114,1.109,4.561,4.561,0,0,0-.075-1.558c-.082-.46-.091-.356-.039.449m29.877-.3c0,.329.026.446.055.26a2.009,2.009,0,0,0,0-.6c-.03-.143-.054.009-.053.338" transform="translate(-124.075 -80.125)" fill="#f0b5cc" fill-rule="evenodd"/>
      <path id="path4" d="M181.025,119.28c-.133.111-.084.125.182.052.446-.123.542-.209.232-.206a.766.766,0,0,0-.414.154m5.342-.1a2.207,2.207,0,0,0,.535.155c.347.072.433.057.3-.053-.164-.138-.96-.235-.838-.1m2.413.768c.553.263.771.259.3-.005a1.5,1.5,0,0,0-.545-.2c-.1,0,.009.1.242.206m-13.147,2.107-.364.385.394-.322a1.773,1.773,0,0,0,.394-.386c0-.112-.051-.073-.424.322m17.267.406a2.649,2.649,0,0,0,.363.454c.2.22.364.345.364.277a1.256,1.256,0,0,0-.364-.454c-.2-.182-.363-.307-.363-.277m-18.85,1.188c-.9,1.216-1.063,1.458-1,1.458a7.266,7.266,0,0,0,.76-.972c.7-.99.891-1.371.239-.486m20.01.126c.2.3.379.512.409.481s-.13-.273-.354-.538l-.409-.481.355.538m.536.71a.962.962,0,0,0,.242.4c.133.149.242.227.242.173a1.207,1.207,0,0,0-.242-.4c-.133-.164-.242-.242-.242-.173m-22.112,1.486c-.434.846-.493,1-.342.884a5.806,5.806,0,0,0,.79-1.594,2.671,2.671,0,0,0-.448.71m-.781,1.657c-.351.848-.311.979.056.186a2.1,2.1,0,0,0,.249-.725c-.03-.037-.168.205-.306.539m24.856.69c.145.368.284.644.31.613a4.211,4.211,0,0,0-.517-1.282,2.252,2.252,0,0,0,.207.67m-25.488.913a2.557,2.557,0,0,0-.2.744,2.026,2.026,0,0,0,.3-.685,2.67,2.67,0,0,0,.2-.744,2.8,2.8,0,0,0-.3.685m15.345.968a3.8,3.8,0,0,0,.848.114c.273-.007.227-.04-.182-.13-.731-.161-1.3-.147-.666.016m-5.784.1a1.076,1.076,0,0,0,.485,0c.116-.037-.008-.067-.274-.065s-.361.032-.211.068m16.634-.086a3.526,3.526,0,0,0,.173.6c.1.277.177.4.177.279,0-.215-.341-1.071-.35-.877m-8.426.428a1.132,1.132,0,0,0,.424.129c.115,0,.092-.047-.061-.129a1.132,1.132,0,0,0-.424-.129c-.115,0-.092.047.061.129m-18.465.762a3.126,3.126,0,0,0-.127.643c0,.09.087-.1.182-.421a2.01,2.01,0,0,0,.127-.643c-.026-.032-.108.157-.182.42m20.767.009a2.746,2.746,0,0,0,1.121.512c.022-.027-.194-.166-.48-.309-.745-.371-.918-.427-.641-.2M176,131.765c-.2.113-.282.206-.182.207a1.135,1.135,0,0,0,.485-.212c.383-.27.178-.267-.3.005m-5.916.78a3.5,3.5,0,0,0-.17,1.084,4.4,4.4,0,0,0,.267-1.2c-.024,0-.068.05-.1.112m3.854.584c-.265.218-.782.7-1.149,1.076s-.689.7-.717.725a.085.085,0,0,0,0,.113c.03.037.217-.119.414-.347s.714-.736,1.147-1.128c.853-.774.915-.835.835-.835a3.735,3.735,0,0,0-.535.4m20-.028a1.562,1.562,0,0,0,.478.373c.063,0-.071-.163-.3-.369-.528-.481-.656-.484-.182,0m.666.422a4.283,4.283,0,0,0,.57.646c.314.317.531.5.483.4a5.012,5.012,0,0,0-1.053-1.049m-24.892.64a1.07,1.07,0,0,0-.029.462c.029.035.088-.115.133-.335a1.07,1.07,0,0,0,.029-.462c-.029-.035-.088.115-.133.335m26.1.628a1.744,1.744,0,0,0,.581.688c.26.2.156,0-.217-.406-.2-.22-.364-.347-.364-.282m-24.361.969c-.269.351-.852,1.345-.637,1.084a9.133,9.133,0,0,0,.964-1.421,1.2,1.2,0,0,0-.327.336m.665.15-.356.486.375-.417c.415-.462.49-.417.772.458a1.751,1.751,0,0,0,.275.579c.076.058.076-.01,0-.19-.065-.154-.212-.532-.329-.84-.258-.682-.29-.686-.737-.075m26.486-.1a1.279,1.279,0,0,0,.125.511c.09.164.1.1.042-.224-.1-.55-.169-.669-.167-.287m-1.679.49c.664,1.071.871,1.354.722.993a6.706,6.706,0,0,0-.625-.972l-.5-.673.4.652m-2.085.634a2.126,2.126,0,0,0-.207.67c.025.031.165-.244.31-.613.33-.839.241-.888-.1-.057M169.1,137.3a2.052,2.052,0,0,0-.063.568c.008.2.049.132.112-.2.106-.556.077-.774-.049-.369m1.1.467c-.457.928-.364.956.127.039.217-.4.353-.733.3-.731a2.335,2.335,0,0,0-.43.692m.75-.123c-.5.877-.748,1.371-.679,1.371a11.162,11.162,0,0,0,1.026-1.879,1.892,1.892,0,0,0-.347.508m26.318.539a2.2,2.2,0,0,0,.306.532c.086,0-.307-.871-.439-.972-.067-.051-.008.147.132.439m.573-.271c.268.6.538.93.33.4a1.885,1.885,0,0,0-.321-.579c-.1-.073-.1-.023-.01.178m-24.032.653a1.316,1.316,0,0,0,.249.449c.033,0-.024-.2-.128-.449a1.314,1.314,0,0,0-.249-.449c-.033,0,.024.2.128.449m20.282.037c-.079.185-.223.5-.32.71-.169.359-.168.361.028.075.242-.354.581-1.122.5-1.122-.033,0-.124.151-.2.336m-25.282,1.159c0,.288.025.406.055.262a1.518,1.518,0,0,0,0-.523c-.031-.144-.055-.026-.055.262m24.477.5c-.131.274-.337.695-.458.935-.157.312-.166.372-.031.211a6.6,6.6,0,0,0,.788-1.645,1.725,1.725,0,0,0-.3.5m-18.631.024a21.461,21.461,0,0,0,1.368,2.4,9.916,9.916,0,0,0-.652-1.3c-.7-1.272-1.122-1.922-.716-1.1m24.683.474a4.066,4.066,0,0,1-.1.748c-.06.21-.044.235.069.107a1.274,1.274,0,0,0,.1-.748c-.043-.516-.051-.527-.069-.107m-30.677.63a.579.579,0,0,0,.121.391c.067.051.121-.042.121-.207a.579.579,0,0,0-.121-.391c-.067-.051-.121.042-.121.207m23.606.8c-.491.813-.874,1.546-.683,1.308a11.518,11.518,0,0,0,1.033-1.794,2.063,2.063,0,0,0-.35.486m-16.093.788a9.18,9.18,0,0,0,1.059,1.716,6.9,6.9,0,0,0-.839-1.478c-.121-.2-.22-.3-.22-.238m-7.437.539c-.1.623,0,.744.106.131a1.352,1.352,0,0,0,.028-.539c-.031-.038-.091.145-.134.408m30.539.355a3.719,3.719,0,0,0,.118.661c.092.128.023-.673-.082-.96-.076-.209-.087-.118-.036.3m-9.125,1.757c-.649,1.007-1.21,1.866-1.247,1.908-.314.356-.653.948-.384.671.159-.164.809-1.105,1.443-2.092s1.236-1.912,1.335-2.056.148-.262.107-.262a20.487,20.487,0,0,0-1.254,1.832m-12.644-.411a2.043,2.043,0,0,0,.327.374,1.029,1.029,0,0,0-.156-.374c-.109-.206-.256-.374-.327-.374s0,.168.156.374m21.975,1.047c0,.74.02,1.062.045.715a12,12,0,0,0,0-1.346c-.025-.393-.046-.109-.046.631m-31.027.075c0,.452.023.637.051.411a4.1,4.1,0,0,0,0-.822c-.028-.226-.051-.041-.051.411m11.289,2.225a6.862,6.862,0,0,0,.652.766,8.258,8.258,0,0,0-1.127-1.476c-.069-.031.145.289.476.71m19.588-.107a3.336,3.336,0,0,1-.084.523c-.066.26-.063.26.069.007a.916.916,0,0,0,.084-.523c-.049-.231-.056-.232-.069-.007m-11.712.91-.6.785.636-.742c.591-.689.692-.828.6-.828a9.686,9.686,0,0,0-.636.785m-18.94-.486a3.592,3.592,0,0,0,.163.748c.09.288.163.422.163.3a3.594,3.594,0,0,0-.163-.748c-.09-.288-.163-.422-.163-.3m13.159,2.415c1.617,2.016,1.656,2.111,1.122,2.742-.2.236-.339.456-.311.491.084.1.788-.922.791-1.155a30.711,30.711,0,0,0-2.965-3.875,19.2,19.2,0,0,0,1.363,1.8m3.181,1.341q-3.988,5.034-.151.357c1.216-1.48,2.21-2.708,2.21-2.729,0-.18-.433.318-2.06,2.372m13.511-1.1c-.354,1.025-.353,1.1,0,.29a2.9,2.9,0,0,0,.277-.858c-.021-.074-.146.181-.28.567m-.54,1.373c-.074.172-.085.312-.023.312.125,0,.3-.453.212-.558-.03-.036-.115.074-.189.246m-.708,1.668a1.924,1.924,0,0,0-.22.588,3.448,3.448,0,0,0,.54-1.119c-.025-.031-.169.208-.32.531m-18.14,4.177c-1.8,2.221-3.338,4.037-3.421,4.037a4.653,4.653,0,0,1-.9-1.122,10.369,10.369,0,0,0-.8-1.122c-.076,0,.127.323.917,1.458a3.584,3.584,0,0,0,.8.935c.082,0,1.618-1.82,3.413-4.044,3.727-4.618,3.379-4.18,3.313-4.18-.028,0-1.523,1.817-3.321,4.038m-8.3-3.843a5.368,5.368,0,0,0,.7,1.3,3.914,3.914,0,0,0-.533-1.117c-.09-.162-.163-.245-.163-.184m25.977.591c-.417.873-.444.948-.232.636.246-.362.458-.822.379-.822-.032,0-.1.084-.147.187m-24.814,1.72c.607,1.175.775,1.468.775,1.346a15.915,15.915,0,0,0-1.161-2.206,4.123,4.123,0,0,0,.386.86m3.739,6.924c-3.463,4.281-6.321,7.83-6.351,7.888s2.818-3.428,6.331-7.746,6.387-7.867,6.387-7.888c0-.115-.586.6-6.367,7.746m20.1-6.8c-.254.458-.724,1.283-1.045,1.832s-.413.763-.206.475a26.371,26.371,0,0,0,1.773-3.14,4.914,4.914,0,0,0-.522.833m-22.9,1.429a6.01,6.01,0,0,0,.974,1.616c.055.005-.058-.243-.251-.551s-.45-.729-.57-.935-.188-.264-.152-.13m20.786,2.112c-.221.35-.526.8-.677,1.008a1.559,1.559,0,0,0-.274.491c0,.065.153-.1.339-.372a11.1,11.1,0,0,0,1.075-1.762,3.306,3.306,0,0,0-.463.636m-1.566,2.318c-.715.988-.877,1.234-.814,1.234a5.308,5.308,0,0,0,.636-.822c.58-.837.719-1.16.178-.411m-.414,1.588c-.473.595-.572.908-.114.361a1.841,1.841,0,0,0,.411-.61c-.03-.03-.164.082-.3.25m4.6,4.58c2.2,2.714,4.021,4.935,4.049,4.935s-1.2-1.557-2.726-3.459-3.3-4.123-3.945-4.935a12.521,12.521,0,0,0-1.272-1.476c-.057,0,1.7,2.221,3.894,4.935m-5.707-4.313-.231.322.333-.265c.344-.273.409-.38.231-.38-.056,0-.206.145-.333.322m-1.256,1.674-.541.77.632-.742a9.744,9.744,0,0,0,.632-.785c0-.173-.261.1-.723.757m.48.471a3.333,3.333,0,0,0-.475.673,4.652,4.652,0,0,0,.6-.673,3.33,3.33,0,0,0,.475-.673,4.651,4.651,0,0,0-.6.673m-1.848,1.178a5.835,5.835,0,0,0-.659.936,5.444,5.444,0,0,0,.751-.843,4.676,4.676,0,0,0,.659-.936,4.521,4.521,0,0,0-.751.843m.279.759-.539.756.594-.705a2.985,2.985,0,0,0,.539-.756,2.88,2.88,0,0,0-.594.705m-2.142,1.539a9.023,9.023,0,0,0-.906,1.236,18.863,18.863,0,0,0,1.945-2.427,9.1,9.1,0,0,0-1.039,1.192m.567.405-.539.756.594-.705a2.984,2.984,0,0,0,.539-.756,2.88,2.88,0,0,0-.594.705m-18.421,2.246a7.478,7.478,0,0,0-.845,1.162,7.785,7.785,0,0,0,.954-1.117c1.149-1.482,1.073-1.513-.109-.044m16.809-.287a3.686,3.686,0,0,0-.576.945,3.289,3.289,0,0,0,.854,1.216c.048,0-.1-.249-.322-.553-.522-.7-.52-.72.158-1.57a3.042,3.042,0,0,0,.515-.759,3.234,3.234,0,0,0-.629.72m-.98.142c-.317.37-.531.673-.475.673a3.1,3.1,0,0,0,.637-.673,3.388,3.388,0,0,0,.475-.673,5.137,5.137,0,0,0-.637.673m-4.322,5.421-3.7,4.6,3.726-4.56c3.463-4.238,3.781-4.636,3.7-4.636-.017,0-1.694,2.069-3.726,4.6m-12.335-2.5a3.593,3.593,0,0,0,.1.748l.1.374v-.374a3.594,3.594,0,0,0-.1-.748l-.1-.374v.374m18.879.241a4.114,4.114,0,0,0,.624.881c.343.411.535.579.426.374-.253-.478-1.05-1.43-1.05-1.255m13.846.656c0,.37.024.522.052.336a2.606,2.606,0,0,0,0-.673c-.029-.185-.052-.034-.052.336m-32.364,2.467a7.029,7.029,0,0,0,.092,1.047c.132.787.143.08.013-.822-.073-.5-.1-.561-.105-.224m32.038.536a3.332,3.332,0,0,0-.028.837,1.823,1.823,0,0,0,.14-.7,3.165,3.165,0,0,0,.028-.837c-.031-.039-.094.276-.14.7M188.9,179.5a.91.91,0,0,0,.242.371c.133.141.242.2.242.141a.91.91,0,0,0-.242-.371c-.133-.141-.242-.2-.242-.141m3.939,4.967c4.788,6.029,5.727,7.124,5.906,6.887.122-.163.12-.179-.014-.086-.117.082-1.456-1.466-4.543-5.249-3.277-4.017-3.616-4.407-1.349-1.552m-24.629-1.72c0,.329.026.446.055.26a2.01,2.01,0,0,0,0-.6c-.03-.143-.054.009-.053.338m31.381.374c0,.288.025.406.055.262a1.52,1.52,0,0,0,0-.523c-.031-.144-.055-.026-.055.262m-26.868,4.187c-3.21,3.963-3.5,4.268-3.614,3.81-.04-.161-.051-.15-.038.036.048.645.558.126,3.712-3.768,1.832-2.264,3.3-4.115,3.271-4.115s-1.532,1.817-3.33,4.037m-4.273-1.869a5.4,5.4,0,0,0,.093.9c.128.622.134.01.007-.748-.084-.5-.1-.527-.1-.15m30.806.593a3.715,3.715,0,0,0-.027.914,2.106,2.106,0,0,0,.139-.776,3.991,3.991,0,0,0,.027-.914,2.289,2.289,0,0,0-.139.776m-30.437,2.922c0,.37.024.522.052.336a2.607,2.607,0,0,0,0-.673c-.029-.185-.052-.034-.052.336m30.157.224c-.012.247-.049.617-.084.822l-.062.374.131-.369a2.261,2.261,0,0,0,.083-.822l-.047-.454-.021.449" transform="translate(-123.347 -80.394)" fill="#f9d8e9" fill-rule="evenodd"/>
    </g>
  </g>
</svg>
