<svg xmlns="http://www.w3.org/2000/svg" xmlns:xlink="http://www.w3.org/1999/xlink" width="816.819" height="578.5" viewBox="0 0 816.819 578.5">
  <defs>
    <linearGradient id="linear-gradient" x1="0.5" y1="1" x2="0.5" gradientUnits="objectBoundingBox">
      <stop offset="0" stop-color="gray" stop-opacity="0.251"/>
      <stop offset="0.54" stop-color="gray" stop-opacity="0.122"/>
      <stop offset="1" stop-color="gray" stop-opacity="0.102"/>
    </linearGradient>
    <linearGradient id="linear-gradient-2" x1="0.5" y1="1" x2="0.5" y2="0" xlink:href="#linear-gradient"/>
  </defs>
  <g id="Group_26" data-name="Group 26" transform="translate(0.005 0.006)">
    <ellipse id="Ellipse_9" data-name="Ellipse 9" cx="72.014" cy="11.566" rx="72.014" ry="11.566" transform="translate(199.628 555.036)" fill="#ec76ac" opacity="0.1"/>
    <ellipse id="Ellipse_10" data-name="Ellipse 10" cx="89.863" cy="11.566" rx="89.863" ry="11.566" transform="translate(573.24 555.361)" fill="#ec76ac" opacity="0.1"/>
    <path id="Path_1" data-name="Path 1" d="M60.537,396.83h75.008V499.065H66.029c-.185,1.049-.362,2.106-.554,3.163h70.071v82.45c-.126-.037-.236-.081-.355-.126-1.981-.783-3.947-1.611-5.913-2.5l-1.256-.569q-2.956-1.4-5.913-2.956c-.687-.362-1.375-.739-2.055-1.123A123,123,0,0,1,90.58,554.376c-.251-.244-.488-.5-.739-.739-1.2-1.3-2.372-2.616-3.511-3.961L85.074,548.2c-1.345-1.648-2.646-3.341-3.91-5.055-.185-.251-.362-.5-.554-.739A110.035,110.035,0,0,1,67.9,519.419c-.1-.244-.192-.51-.288-.739q-1.522-3.917-2.7-7.908c-.34-1.116-.665-2.217-.946-3.378-.1-.34-.192-.673-.273-1.005C59.5,490,59,472.983,59,456.081v-5.913c0-6.836.081-13.717.2-20.59,0-1.781.074-3.555.111-5.343q.155-6.807.443-13.614c.044-1.264.1-2.52.17-3.777a21.391,21.391,0,0,1,.111-2.173C60.212,402.04,60.36,399.432,60.537,396.83Z" transform="translate(-50.183 -146.88)" fill="#ec76ac" opacity="0.1"/>
    <path id="Path_2" data-name="Path 2" d="M148.044,224.451H106.9a311.894,311.894,0,0,1,21.884-30.124c6.112-7.509,12.564-14.826,19.26-21.876Z" transform="translate(-62.682 -88.331)" fill="#ec76ac" opacity="0.1"/>
    <path id="Path_3" data-name="Path 3" d="M136.171,247.09v107.5H61.4c0-.31.052-.628.074-.939.067-.85.133-1.7.207-2.542.081-.99.17-1.988.266-2.956s.2-2.151.31-3.222.214-2.158.34-3.23.236-2.143.37-3.208.251-2.143.392-3.208c.111-.887.229-1.766.347-2.653.17-1.249.347-2.505.54-3.747a3.457,3.457,0,0,1,.081-.554,255.645,255.645,0,0,1,5.506-26.991A199.607,199.607,0,0,1,79.108,274a205.279,205.279,0,0,1,13.954-26.872Z" transform="translate(-50.81 -107.808)" fill="#ec76ac" opacity="0.1"/>
    <path id="Path_4" data-name="Path 4" d="M186.8,308.573V410.815H347.007V308.573Zm0,105.4v87.8c.916.192,1.826.377,2.727.532,1.227.236,2.446.451,3.7.636.236.037.48.074.739.1.488.081.99.148,1.478.214,1.234.17,2.461.31,3.7.421.584.059,1.175.111,1.766.155l1.426.111h0c.776.059,1.545.1,2.306.126.473,0,.946.044,1.434.059h5.27c.636,0,1.271,0,1.9-.059h.044A9.96,9.96,0,0,0,214.6,504a3.1,3.1,0,0,0,.37,0,7.637,7.637,0,0,0,1.094-.052h.259l2.476-.192c.813-.074,1.633-.17,2.461-.259l1.685-.2a147.409,147.409,0,0,0,20.287-4.316c14.944-4.168,29.563-10,44.5-14.271,19.312-5.506,40.649-8.211,59.31-1.478V413.971ZM347.007,194.749V58.636a205.956,205.956,0,0,0-52.052,6.1c-40.567,10.192-76.966,32.3-108.155,60.529v69.472h8.041V197.9H186.8V305.417H347.007V197.905H227.855v-3.156Zm205.778-45.977c-10.036-.355-20.014-3.533-29.038-8.44-17.257-9.386-31.041-23.879-46.443-36.111-32-25.476-71.689-40.848-112.4-44.662v135.19H593.6l.569-.6Zm20.834-3.7,22.091,24.241v-30.6c-7.4.916-13.88,3.1-22.061,6.326Zm22.091,378.5v-109.6H548.639c-.126-.466-.251-.939-.4-1.412.14.473.259.946.392,1.412h-183.7v79.265c1.744,1.293,3.466,2.653,5.173,4.035h0c1.84,1.478,3.658,3.038,5.484,4.567l1.84,1.522c.879.739,1.766,1.478,2.661,2.173q2.661,2.158,5.373,4.257c.894.739,1.811,1.4,2.72,2.1a370.432,370.432,0,0,0,45.549,29.792q5.343,2.956,10.783,5.772c2.417,1.234,4.848,2.461,7.287,3.651q5.5,2.683,11.086,5.173h0a407.106,407.106,0,0,0,107.9,31.432q12.409,1.833,24.914,2.882V523.566h.739ZM364.929,197.905V305.417h230.81V197.905Zm0,110.668V410.815h230.81V308.573ZM613.654,138.588v34.13l28.2-30.937q-14.013-2.262-28.2-3.23Zm0,170.022V410.815H838.145V308.573Zm223.67,223.079.791-117.718H613.654v177.8a402.557,402.557,0,0,0,43.383-.517h.251q10.347-.65,20.6-1.892h.155a379.317,379.317,0,0,0,105.834-28.24m97.556-235.71c-.843-1.988-1.722-3.961-2.616-5.913-1.67-3.7-3.437-7.287-5.255-10.879H856.045v102.2H900.33c-.022-28.942-7.346-58.5-18.876-85.443Zm-25.387,88.6V515.259a145.046,145.046,0,0,0,30.6-41.277c9.127-18.831,13.3-39.222,13.643-59.99Zm0-135.19v26.606H871.92a288.244,288.244,0,0,0-15.853-26.643ZM703.8,158.646c-1.168-.443-2.335-.894-3.511-1.33a320.468,320.468,0,0,0-37.921-11.4l-43.147,47.352h0l-.828.879.554.606H772.509a328.447,328.447,0,0,0-68.689-36.148Zm73.212,39.3H616.8l-3.148,2.882V305.417h224.52V254.754a319.868,319.868,0,0,0-61.143-56.849Z" transform="translate(-83.531 -58.63)" fill="#ec76ac" opacity="0.1"/>
    <path id="Path_5" data-name="Path 5" d="M136.171,320.46v53.279H61.4c0-.31.052-.628.074-.939.067-.85.133-1.7.207-2.542.081-.99.17-1.988.266-2.956s.2-2.151.31-3.222.214-2.158.34-3.23.236-2.143.37-3.208.251-2.143.392-3.208c.111-.887.229-1.766.347-2.653.17-1.249.347-2.505.54-3.747a3.456,3.456,0,0,1,.081-.554,255.645,255.645,0,0,1,5.506-26.991Z" transform="translate(-50.81 -126.952)" fill="#ec76ac" opacity="0.1"/>
    <path id="Path_6" data-name="Path 6" d="M60.537,396.83h75.008V499.065H66.029c-.185,1.049-.362,2.106-.554,3.163h70.071v82.45c-.126-.037-.236-.081-.355-.126-1.981-.783-3.947-1.611-5.913-2.5l-1.256-.569q-2.956-1.4-5.913-2.956c-.687-.362-1.375-.739-2.055-1.123A123,123,0,0,1,90.58,554.376c-.251-.244-.488-.5-.739-.739-1.2-1.3-2.372-2.616-3.511-3.961L85.074,548.2c-1.345-1.648-2.646-3.341-3.91-5.055-.185-.251-.362-.5-.554-.739A110.035,110.035,0,0,1,67.9,519.419c-.1-.244-.192-.51-.288-.739q-1.522-3.917-2.7-7.908c-.34-1.116-.665-2.217-.946-3.378-.1-.34-.192-.673-.273-1.005C59.5,490,59,472.983,59,456.081v-5.913c0-6.836.081-13.717.2-20.59,0-1.781.074-3.555.111-5.343q.155-6.807.443-13.614c.044-1.264.1-2.52.17-3.777a21.391,21.391,0,0,1,.111-2.173C60.212,402.04,60.36,399.432,60.537,396.83Z" transform="translate(-50.183 -146.88)" fill="#ec76ac" opacity="0.1"/>
    <path id="Path_7" data-name="Path 7" d="M195.958,198.269v92.117h-56.4V198.269H147.6V167.08h33.007v31.189Z" transform="translate(-36.291 -43.599)" fill="#ec76ac" opacity="0.1"/>
    <rect id="Rectangle_15" data-name="Rectangle 15" width="56.391" height="102.235" transform="translate(103.276 249.943)" fill="#ec76ac" opacity="0.1"/>
    <path id="Path_8" data-name="Path 8" d="M186.8,539.44h56.4v84.992a147.163,147.163,0,0,1-20.287,4.309l-1.685.207c-.828.1-1.648.177-2.461.259s-1.656.14-2.476.192h-.259c-.355,0-.739.044-1.086.052h-.377c-.443,0-.887.044-1.33.059h0c-.628.037-1.256.044-1.9.052H206.1l-1.426-.052c-.739,0-1.537-.081-2.306-.133h0l-1.419-.1-1.766-.163c-1.242-.111-2.476-.251-3.7-.421l-1.478-.207-.739-.1c-1.234-.192-2.454-.4-3.7-.636-.909-.155-1.811-.347-2.727-.532Z" transform="translate(-83.531 -184.092)" fill="#ec76ac" opacity="0.1"/>
    <rect id="Rectangle_16" data-name="Rectangle 16" width="46.502" height="102.989" transform="translate(465.706 143.791)" fill="#ec76ac" opacity="0.1"/>
    <path id="Path_9" data-name="Path 9" d="M611.4,338.19V440.432H380.58v-44.1H503.523v26.015h61.365V338.19Z" transform="translate(-99.182 -88.247)" fill="#ec76ac" opacity="0.1"/>
    <path id="Path_10" data-name="Path 10" d="M659.369,648.56h-.739v67.07q-12.49-1.057-24.906-2.875a407.122,407.122,0,0,1-107.948-31.5q-14.878-6.7-29.149-14.619a371.937,371.937,0,0,1-45.556-29.792q-5.44-4.168-10.739-8.529c-2.446-2.018-4.878-4.087-7.339-6.1-1.707-1.382-3.429-2.742-5.173-4.043V538.942H611.514c-.126-.473-.251-.946-.384-1.412.14.466.273.939.4,1.412h47.1V648.515C658.881,648.523,659.125,648.545,659.369,648.56Z" transform="translate(-146.422 -183.594)" fill="#ec76ac" opacity="0.1"/>
    <path id="Path_11" data-name="Path 11" d="M893.522,229.583h-30.3v-9.416H876.8V192.12q1.766.643,3.518,1.323v26.725h13.2Z" transform="translate(-260.033 -93.464)" fill="#ec76ac" opacity="0.1"/>
    <path id="Path_12" data-name="Path 12" d="M940.73,354.594H791.971l.052.037-.067-.037h-27.6V251.606h7.819v76.124h35.734V282.646h29.518V247.09h30.3v35.586h29.518v45.083H940.73Z" transform="translate(-234.237 -107.808)" fill="#ec76ac" opacity="0.1"/>
    <path id="Path_13" data-name="Path 13" d="M764.36,396.82V499.062H940.73V396.82ZM988.607,619.411l.244-80.928H940.73V502.27H764.36V680.015a402.557,402.557,0,0,0,43.383-.517h.251q10.347-.65,20.6-1.892h.155a379.317,379.317,0,0,0,105.834-28.24" transform="translate(-234.237 -146.877)" fill="#ec76ac" opacity="0.1"/>
    <path id="Path_14" data-name="Path 14" d="M1095.474,539.44h41.144c-.362,20.76-4.531,41.151-13.651,59.982a145.1,145.1,0,0,1-30.6,41.277V575.661h3.1Z" transform="translate(-319.826 -184.092)" fill="#ec76ac" opacity="0.1"/>
    <path id="Path_15" data-name="Path 15" d="M1137.736,504.993H1096.57V419.55h22.275C1130.375,446.489,1137.7,476.051,1137.736,504.993Z" transform="translate(-320.922 -152.809)" fill="#ec76ac" opacity="0.1"/>
    <rect id="Rectangle_17" data-name="Rectangle 17" width="24.914" height="32.29" transform="translate(487.302 172.422)" fill="#ec76ac" opacity="0.1"/>
    <rect id="Rectangle_18" data-name="Rectangle 18" width="24.914" height="7.435" transform="translate(487.302 239.352)" fill="#ec76ac" opacity="0.1"/>
    <rect id="Rectangle_19" data-name="Rectangle 19" width="24.914" height="21.692" transform="translate(487.302 249.943)" fill="#ec76ac" opacity="0.1"/>
    <rect id="Rectangle_20" data-name="Rectangle 20" width="24.914" height="32.29" transform="translate(487.302 306.281)" fill="#ec76ac" opacity="0.1"/>
    <rect id="Rectangle_21" data-name="Rectangle 21" width="24.914" height="32.29" transform="translate(487.302 373.211)" fill="#ec76ac" opacity="0.1"/>
    <path id="Path_16" data-name="Path 16" d="M731.326,678.951a4.093,4.093,0,0,1,.739.044h-.739v7.5H706.42V654.17h24.906Z" transform="translate(-219.118 -214.029)" fill="#ec76ac" opacity="0.1"/>
    <path id="Path_17" data-name="Path 17" d="M731.326,744.71v24.943q-12.49-1.057-24.906-2.875V744.71Z" transform="translate(-219.118 -237.654)" fill="#ec76ac" opacity="0.1"/>
    <rect id="Rectangle_22" data-name="Rectangle 22" width="106.773" height="2.372" transform="translate(281.398 349.812)" fill="#ec76ac" opacity="0.1"/>
    <rect id="Rectangle_23" data-name="Rectangle 23" width="106.773" height="9.09" transform="translate(281.398 355.341)" fill="#ec76ac" opacity="0.1"/>
    <rect id="Rectangle_24" data-name="Rectangle 24" width="106.773" height="14.619" transform="translate(281.398 394.23)" fill="#ec76ac" opacity="0.1"/>
    <path id="Path_18" data-name="Path 18" d="M536.409,652.15v14.619H452.895q-5.439-4.154-10.746-8.529c-2.446-2.018-4.87-4.087-7.339-6.09Z" transform="translate(-148.246 -213.502)" fill="#ec76ac" opacity="0.1"/>
    <path id="Path_19" data-name="Path 19" d="M558.878,712.232v14.6h-8.817q-14.863-6.7-29.141-14.626Z" transform="translate(-170.715 -229.174)" fill="#ec76ac" opacity="0.1"/>
    <rect id="Rectangle_25" data-name="Rectangle 25" width="21.019" height="21.019" transform="translate(573.514 259.853)" fill="#ec76ac" opacity="0.1"/>
    <rect id="Rectangle_26" data-name="Rectangle 26" width="21.019" height="21.019" transform="translate(118.413 161.92)" fill="#ec76ac" opacity="0.1"/>
    <rect id="Rectangle_27" data-name="Rectangle 27" width="21.019" height="21.019" transform="translate(118.413 210.743)" fill="#ec76ac" opacity="0.1"/>
    <rect id="Rectangle_28" data-name="Rectangle 28" width="21.019" height="21.019" transform="translate(118.413 259.565)" fill="#ec76ac" opacity="0.1"/>
    <rect id="Rectangle_29" data-name="Rectangle 29" width="21.019" height="21.019" transform="translate(118.413 308.38)" fill="#ec76ac" opacity="0.1"/>
    <rect id="Rectangle_30" data-name="Rectangle 30" width="21.019" height="21.019" transform="translate(118.413 357.203)" fill="#ec76ac" opacity="0.1"/>
    <rect id="Rectangle_31" data-name="Rectangle 31" width="21.019" height="21.019" transform="translate(118.413 406.026)" fill="#ec76ac" opacity="0.1"/>
    <rect id="Rectangle_32" data-name="Rectangle 32" width="21.019" height="21.019" transform="translate(653.754 259.853)" fill="#ec76ac" opacity="0.1"/>
    <rect id="Rectangle_33" data-name="Rectangle 33" width="21.019" height="21.019" transform="translate(573.514 311.699)" fill="#ec76ac" opacity="0.1"/>
    <rect id="Rectangle_34" data-name="Rectangle 34" width="21.019" height="21.019" transform="translate(653.754 311.699)" fill="#ec76ac" opacity="0.1"/>
    <rect id="Rectangle_35" data-name="Rectangle 35" width="21.019" height="21.019" transform="translate(573.514 363.537)" fill="#ec76ac" opacity="0.1"/>
    <rect id="Rectangle_36" data-name="Rectangle 36" width="21.019" height="21.019" transform="translate(653.754 363.537)" fill="#ec76ac" opacity="0.1"/>
    <rect id="Rectangle_37" data-name="Rectangle 37" width="21.019" height="21.019" transform="translate(573.514 415.382)" fill="#ec76ac" opacity="0.1"/>
    <rect id="Rectangle_38" data-name="Rectangle 38" width="21.019" height="21.019" transform="translate(653.754 415.382)" fill="#ec76ac" opacity="0.1"/>
    <rect id="Rectangle_39" data-name="Rectangle 39" width="21.019" height="21.019" transform="translate(573.514 467.228)" fill="#ec76ac" opacity="0.1"/>
    <rect id="Rectangle_40" data-name="Rectangle 40" width="21.019" height="21.019" transform="translate(653.754 467.228)" fill="#ec76ac" opacity="0.1"/>
    <path id="Path_20" data-name="Path 20" d="M775.83,715.884V702.33h21.012v11.625Z" transform="translate(-202.316 -183.264)" fill="#ec76ac" opacity="0.1"/>
    <path id="Path_21" data-name="Path 21" d="M65.24,357v12.025h71.933V357Zm7.169,11.271H66.541V357.739h5.913Zm7.162,0H73.658V357.739H79.57Zm7.147,0H80.8V357.739h5.913Zm7.162,0H87.974V357.739h5.913Zm7.154,0H95.12V357.739h5.913Zm7.162,0h-5.913V357.739h5.913Zm7.162,0h-5.913V357.739h5.913Zm7.154,0H116.6V357.739h5.913Zm7.154,0h-5.913V357.739h5.913Zm7.154,0h-5.913V357.739h5.913Z" transform="translate(-51.812 -136.487)" fill="#ec76ac" opacity="0.1"/>
    <path id="Path_22" data-name="Path 22" d="M65.24,404.34v12.025h71.933V404.34ZM72.409,415.6H66.541V405.1h5.913Zm7.162,0H73.658V405.1H79.57Zm7.147,0H80.8V405.1h5.913Zm7.162,0H87.974V405.1h5.913Zm7.154,0H95.12V405.1h5.913Zm7.162,0h-5.913V405.1h5.913Zm7.162,0h-5.913V405.1h5.913Zm7.154,0H116.6V405.1h5.913Zm7.154,0h-5.913V405.1h5.913Zm7.154,0h-5.913V405.1h5.913Z" transform="translate(-51.812 -148.84)" fill="#ec76ac" opacity="0.1"/>
    <path id="Path_23" data-name="Path 23" d="M65.24,451.7v12.047h71.933V451.7Zm7.169,11.263H66.541V452.454h5.913Zm7.162,0H73.658V452.454H79.57Zm7.147,0H80.8V452.454h5.913Zm7.162,0H87.974V452.454h5.913Zm7.154,0H95.12V452.454h5.913Zm7.162,0h-5.913V452.454h5.913Zm7.162,0h-5.913V452.454h5.913Zm7.154,0H116.6V452.454h5.913Zm7.154,0h-5.913V452.454h5.913Zm7.154,0h-5.913V452.454h5.913Z" transform="translate(-51.812 -161.198)" fill="#ec76ac" opacity="0.1"/>
    <path id="Path_24" data-name="Path 24" d="M65.24,499.06v12.01h71.933V499.06Zm7.169,11.263H66.541V499.806h5.913Zm7.162,0H73.658V499.806H79.57Zm7.147,0H80.8V499.806h5.913Zm7.162,0H87.974V499.806h5.913Zm7.154,0H95.12V499.806h5.913Zm7.162,0h-5.913V499.806h5.913Zm7.162,0h-5.913V499.806h5.913Zm7.154,0H116.6V499.806h5.913Zm7.154,0h-5.913V499.806h5.913Zm7.154,0h-5.913V499.806h5.913Z" transform="translate(-51.812 -173.555)" fill="#ec76ac" opacity="0.1"/>
    <path id="Path_25" data-name="Path 25" d="M65.66,546.41c.288,1.131.613,2.262.953,3.378v-2.624h5.913v10.509H69.363c.1.244.192.51.288.739h67.632v-12ZM79.7,557.673H73.79V547.164H79.7Zm7.147,0H80.936V547.164h5.913Zm7.162,0H88.083V547.164H94Zm7.154,0H95.252V547.164h5.913Zm7.162,0h-5.913V547.164h5.913Zm7.162,0h-5.913V547.164h5.913Zm7.154,0h-5.913V547.164h5.913Zm7.154,0h-5.913V547.164H129.8Zm7.154,0h-5.913V547.164h5.913Z" transform="translate(-51.921 -185.911)" fill="#ec76ac" opacity="0.1"/>
    <path id="Path_26" data-name="Path 26" d="M88.26,593.77c.185.237.362.5.554.739h3.91v5.048c.421.5.835,1.005,1.264,1.478v-6.556H99.9v10.546H97.506c.237.244.466.5.739.739H143.2V593.77Zm18.78,11.256h-5.913v-10.5h5.913Zm7.162,0h-5.913v-10.5H114.2Zm7.162,0H115.45v-10.5h5.913Zm7.154,0H122.6v-10.5h5.913Zm7.154,0h-5.913v-10.5h5.913Zm7.154,0h-5.913v-10.5h5.913Z" transform="translate(-57.818 -198.269)" fill="#ec76ac" opacity="0.1"/>
    <path id="Path_27" data-name="Path 27" d="M141.65,641.12c.673.384,1.36.739,2.055,1.123v-.37h5.913V645.2l1.256.584v-3.91h5.913v6.393a1.854,1.854,0,0,0,.355.133v-7.28Z" transform="translate(-71.75 -210.624)" fill="#ec76ac" opacity="0.1"/>
    <path id="Path_28" data-name="Path 28" d="M644.115,353.47ZM598.589,571.6Zm-47.5-110.985c.14.473.259.946.392,1.412h0C551.362,461.558,551.237,461.085,551.089,460.612Zm93.026-107.164ZM197.72,242.78v3.156h33.014V242.78ZM598.589,571.6Zm-47.5-110.985c.14.473.259.946.392,1.412h0C551.362,461.558,551.237,461.085,551.089,460.612Zm93.026-107.164ZM598.589,571.575Zm-47.5-110.963c.14.473.259.946.392,1.412h0C551.362,461.558,551.237,461.085,551.089,460.612Z" transform="translate(-86.38 -106.683)" fill="#ec76ac" opacity="0.1"/>
    <path id="Path_29" data-name="Path 29" d="M453.2,380.857s-2.912-.406-2.912-4.649-2.084-12.165-2.084-12.165h0c0-.037-1.8-13.8-4.294-15.986s-5.691-15.033-5.691-15.033-.547-6.969-1.663-8.47-2.624-5.173-4.848-10.413-11.5-8.869-11.5-8.869-16.769-9.726-21.522-12.9h0a7.286,7.286,0,0,1-1.2-.909c-.828-1.086-4.434-1.109-4.434-1.109a72.667,72.667,0,0,1-.857-7.59,5.777,5.777,0,0,0-.037-.8A25.572,25.572,0,0,0,403.4,268.061c.089-.281.163-.576.244-.857a2.4,2.4,0,0,0,1.441-1.3,27.113,27.113,0,0,1,.968-2.956c.621-1.049,1.8-1.611,2.735-2.4,2.35-2,2.956-5.358,2.845-8.418-.074-2.476-.473-4.974-.318-7.435l.044-.621c.044-.37.1-.739.163-1.094.362-1.833,1.153-3.562,1.6-5.38a6.921,6.921,0,0,0-.547-5.432c-1.515-2.3-4.671-2.757-7.442-2.993-3.141-.266-5.949.081-7.96-2.528A28.374,28.374,0,0,0,394,222.823c-.414-.384-4.434-2.838-4.434-3a17.967,17.967,0,0,0-12.527-.961c-2.084.606-4.05,1.6-6.164,2.092-4.56,1.079-9.807-.089-13.68,2.52-2.158,1.478-3.451,3.828-4.664,6.119q-1.478,2.831-3,5.654a36.625,36.625,0,0,0-3.984,9.674,15.356,15.356,0,0,0-.266,2.262h0v1.2a3.975,3.975,0,0,0,.044.739c.044.229.037.3.059.458s.059.5.1.739.133.65.222.976c.037.14.089.273.133.406.074.251.163.5.259.739.052.126.1.259.163.384a6.921,6.921,0,0,0,.377.739c.059.1.1.2.163.3a9.816,9.816,0,0,0,.68.99c1.582,1.973,3.91,3.23,5.632,5.077v.828a25.3,25.3,0,0,0,11.515,20.657c0,.281.037.569.052.85a42.289,42.289,0,0,1-.081,6.585,3.1,3.1,0,0,0-2.454-1.094,3.539,3.539,0,0,0-.946.081l-.066-.052h0v.067c-1.626.4-3.629,2.092-5.543,6.9,0,0-5.824,6.563-10.258,6.289s-15.661,6.829-15.661,6.829-10.953,7.11-13.3,14.353a101.149,101.149,0,0,1-4.715,12.032l-13.54,27.9h0l-2.5,22.135s1.382,9.844,1.109,11.345,5.683,15.033,5.683,15.033,19.681,34.581,27.722,36.355l.576-.406a4.717,4.717,0,0,0,1.086.406l1.655-1.168a18.04,18.04,0,0,1-.126,3.9c-1.109,3.414.414,25.7,2.35,30.065s1.249,61.638,1.249,61.638l-.273,5.055a2.142,2.142,0,0,0,.067.443l-.067,1.2.2.1a14.235,14.235,0,0,1-.2,4.811c-.695,2.217-.976,8.484-.976,8.484s-5.536,35.386-2.912,42.5,4.856,14.9,4.856,14.9,2.771,8.869.133,10.384-10.14,4.057-8.6,7.753c1.4,3.414,6.733,12.564,7.524,13.9l-.066.7-1.086,11.773a14.78,14.78,0,0,0,1.249,4.494c1.19,2.565,3.5,5.225,7.9,4.937.739-.052,1.6-.14,2.424-.251,8.048-1.079,17.959-4.671,17.959-4.671a7.324,7.324,0,0,1-1.4-1.16h0a4.057,4.057,0,0,1-1.234-2.956c.118-2.143-3.895-12.357-4.893-14.87-.155-.362-.237-.569-.237-.569s9.15-9.563,7.627-18.041c0,0-10.125-5.913-6.792-9.157s9.29-12.564,9.29-12.564.273-34.847,0-40.05a43.086,43.086,0,0,1,.51-10.812c.111-.539.244-1.064.384-1.582a96.477,96.477,0,0,0,13.924,1.057c1.7,0,3.429,0,5.173-.1q0,.739.066,1.6c.384,8.632,1.1,23.768,1.685,29.393.828,8.063,5.4,29.792,5.4,29.792s-8.728,5.6,1.522,19.408c0,0,0,5-.68,5.728h0a62.655,62.655,0,0,0-1.752,7.213c-.429,2.6-.606,5.233.089,6.6,1.663,3.267,11.64,3,11.64,3h0l.244-.044a14.3,14.3,0,0,1,10.561,3.185c3.791,3.045,18.181,1.707,25.971.739,3.052-.384,5.092-.739,5.092-.739a2.956,2.956,0,0,0,.1-1.064h0c-.081-1.914-1.582-6.112-11.751-9.859,0,0-9.564-6.43-9.43-12.032h-1.308a10.432,10.432,0,0,1,1.323,0s-3.747-13.673-2.217-14.781-3.052-16.259-3.052-16.259-2.624-25.424-2.764-27.2a15.521,15.521,0,0,1,.687-4.508l-.687-13.939s-.133-4.634,0-6.142a30.677,30.677,0,0,0-.318-3.91c-.066-.517-.133-1.057-.207-1.589,3.584-.909,5.913-1.752,5.913-1.752l-.414-48.52c3.045-5.913,3.607-18.883,3.592-28.084,0-5.913-.266-10.288-.266-10.288l4.161-6.792s.961-8.13-.562-9.911a1.706,1.706,0,0,1,.185-2.328,7.728,7.728,0,0,1,.909-.621s-.044-.067-.1-.163a7.344,7.344,0,0,1,.924-.658s-1.478-2.291-.155-3.259c1.242.843,2.35,1.478,3.193,2-.059.539-.118.85-.118.85l.355-.739c.813.458,1.308.739,1.308.739s6.519-12.985,6.378-14.9,4.434-9.977,4.434-9.977.554-4.235,3.052-6.009,1.936-14.626,1.936-14.626.695-6.7,2.358-9.43S453.2,380.857,453.2,380.857Zm-124.724-5.7.126,3.1-1.271-2.047Z" transform="translate(-111.926 -100.258)" fill="url(#linear-gradient)"/>
    <path id="Path_30" data-name="Path 30" d="M480.726,506.87l-1.6,6.8s-12.786-6.526-15.092-14.818S467.9,487.41,467.9,487.41l11.914,5.048Z" transform="translate(-155.737 -170.516)" fill="#fff"/>
    <path id="Path_31" data-name="Path 31" d="M480.726,506.87l-1.6,6.8s-12.786-6.526-15.092-14.818S467.9,487.41,467.9,487.41l11.914,5.048Z" transform="translate(-155.737 -170.516)" opacity="0.1"/>
    <path id="Path_32" data-name="Path 32" d="M379.5,817.344s-11.825,4.346-19.955,4.893c-4.316.288-6.585-2.358-7.753-4.907a14.854,14.854,0,0,1-1.219-4.471l1.057-11.714.562-6.238,17.272-4.486,2.446,7.479.229.569c.983,2.5,4.922,12.66,4.8,14.781a4.036,4.036,0,0,0,1.212,2.919,7.029,7.029,0,0,0,1.345,1.175Z" transform="translate(-126.264 -249.582)" fill="#fff"/>
    <path id="Path_33" data-name="Path 33" d="M480.258,811.113a2.956,2.956,0,0,1-.1,1.057s-25.291,4.22-30.464,0a13.7,13.7,0,0,0-10.642-3.119s-9.785.266-11.419-2.956c-.68-1.353-.5-3.976-.081-6.563a62.525,62.525,0,0,1,1.715-7.176l.392-.31,2.328-1.87,27.257-.806h.207c-.133,5.573,9.253,11.965,9.253,11.965C478.669,805.031,480.14,809.206,480.258,811.113Z" transform="translate(-146.253 -249.308)" fill="#fff"/>
    <path id="Path_34" data-name="Path 34" d="M480.26,814.7a3.014,3.014,0,0,1-.111,1.057s-25.283,4.22-30.457,0a13.7,13.7,0,0,0-10.635-3.119s-9.793.266-11.419-2.956c-.68-1.36-.51-3.976-.089-6.563,3.769.377,9.719,1.316,12.054,3.555,3.533,3.407,9.519,6.807,13.192,7.073C455.671,813.932,472.869,814.479,480.26,814.7Z" transform="translate(-146.255 -252.896)" opacity="0.1"/>
    <path id="Path_35" data-name="Path 35" d="M379.93,826.448s-11.825,4.346-19.955,4.893c-4.316.288-6.585-2.358-7.745-4.915,3.008,1.013,7.184,2.077,9.379,1.1,2.6-1.153,11.825-1.9,17-2.217A7.279,7.279,0,0,0,379.93,826.448Z" transform="translate(-126.697 -258.686)" opacity="0.1"/>
    <path id="Path_36" data-name="Path 36" d="M406.508,337.344c-9.756-3.791-22.3-16.319-19.171-22.172a13.1,13.1,0,0,0,1.219-4.7,42.914,42.914,0,0,0,.089-6.652A91.089,91.089,0,0,0,387.337,293s30.457.687,28.683,5.173a16.772,16.772,0,0,0-.458,6.156c.14,2.557.51,5.447.894,7.893.532,3.355,1.064,5.913,1.064,5.913s-1.862,2.609-2.956,2.749S420.506,342.746,406.508,337.344Z" transform="translate(-135.73 -119.787)" fill="#cf6f80"/>
    <path id="Path_37" data-name="Path 37" d="M372.479,798.468l-.229.251c-9.105-11.012-20.117,2.712-20.117,2.712l-.163-.288.562-6.238L369.8,790.42l2.446,7.479Z" transform="translate(-126.63 -249.582)" opacity="0.1"/>
    <path id="Path_38" data-name="Path 38" d="M460.2,790.136s-6.652-.14-10.2,2.993-20.694.68-19.955,0a2.432,2.432,0,0,0,.384-1.123l2.328-1.87,27.257-.806C460.114,789.825,460.2,790.136,460.2,790.136Z" transform="translate(-146.995 -249.297)" opacity="0.1"/>
    <path id="Path_39" data-name="Path 39" d="M381.153,668.257a20.563,20.563,0,0,0-1.123,3.791,43.391,43.391,0,0,0-.51,10.761c.273,5.174,0,39.843,0,39.843s-5.846,9.246-9.105,12.5,6.652,9.113,6.652,9.113c1.478,8.425-7.479,17.945-7.479,17.945-9.105-11.012-20.117,2.72-20.117,2.72s-5.986-10.347-7.479-14.042,5.846-6.253,8.425-7.753-.126-10.347-.126-10.347-2.18-7.753-4.767-14.826,2.853-42.282,2.853-42.282.281-6.253.953-8.433a14.1,14.1,0,0,0,.2-4.789c-.044-.54-.1-.99-.133-1.293s-.066-.443-.066-.443l.1-.177,3.7-6.888S382.927,663.918,381.153,668.257Z" transform="translate(-123.974 -213.896)" fill="#ec76ac"/>
    <path id="Path_40" data-name="Path 40" d="M457.375,756.473s-6.652-.14-10.2,2.956-20.694.68-19.955,0,.68-5.713.68-5.713c-10.059-13.732-1.478-19.3-1.478-19.3s-4.493-21.618-5.306-29.636c-.569-5.6-1.271-20.657-1.648-29.252-.163-3.7-.259-6.238-.259-6.238l8.218-1.656,1.057-.214,19.822-3.976s.547,3.7.916,6.718a31.4,31.4,0,0,1,.31,3.895c-.133,1.478,0,6.1,0,6.1l.673,13.872a15.756,15.756,0,0,0-.673,4.486c.133,1.766,2.712,27.057,2.712,27.057s4.486,15.092,2.956,16.178S457.375,756.473,457.375,756.473Z" transform="translate(-144.175 -216.448)" fill="#ec76ac"/>
    <path id="Path_41" data-name="Path 41" d="M416.193,298.173a16.771,16.771,0,0,0-.458,6.156,25.313,25.313,0,0,1-26.917-.5A91.091,91.091,0,0,0,387.51,293S417.967,293.673,416.193,298.173Z" transform="translate(-135.903 -119.787)" opacity="0.1"/>
    <path id="Path_42" data-name="Path 42" d="M424.4,268.971a25.031,25.031,0,0,1-1.242,7.841,25.291,25.291,0,0,1-49.325-7.235v-.606a25.289,25.289,0,1,1,50.578,0Z" transform="translate(-132.334 -106.918)" fill="#cf6f80"/>
    <path id="Path_43" data-name="Path 43" d="M406.508,343.512c-9.756-3.791-22.3-16.319-19.171-22.172a13.1,13.1,0,0,0,1.219-4.7l13.355,10.975,8.263,6.777,6.282-15.993c.532,3.355,1.064,5.913,1.064,5.913s-1.862,2.609-2.956,2.749S420.506,348.915,406.508,343.512Z" transform="translate(-135.73 -125.956)" opacity="0.1"/>
    <path id="Path_44" data-name="Path 44" d="M390.57,332.972,379.418,520.325l-14.545.953L327.21,412.643l6.179-128.974,1.3-27.249,16.747,13.754,8.27,6.777,6.467-16.459,12.025,10.48Z" transform="translate(-85.255 -66.911)" fill="#ec76ac"/>
    <path id="Path_45" data-name="Path 45" d="M383.817,668.277a20.562,20.562,0,0,0-1.123,3.791,107.165,107.165,0,0,1-30.494-9.527l-.2-.1.066-1.19.037-.621,3.7-6.888S385.59,663.939,383.817,668.277Z" transform="translate(-126.637 -213.917)" opacity="0.1"/>
    <path id="Path_46" data-name="Path 46" d="M427.583,676.122a74.839,74.839,0,0,1-8.174.931c-.163-3.7-.259-6.238-.259-6.238l8.218-1.656Z" transform="translate(-144.159 -217.941)" opacity="0.1"/>
    <path id="Path_47" data-name="Path 47" d="M452.438,670.208c-5.255,1.367-13.37,2.9-20.635,1.944l-.1-4.686,19.822-3.976S452.069,667.148,452.438,670.208Z" transform="translate(-147.434 -216.461)" opacity="0.1"/>
    <path id="Path_48" data-name="Path 48" d="M397.827,582.077c-30.3,5.173-58.054-9.66-58.054-9.66l.266-5.026s.687-56.974-1.219-61.342-3.392-26.518-2.313-29.917-3.939-54.38-3.939-54.38l-.813-20.694L302,389l13.3-27.73A100.067,100.067,0,0,0,319.93,349.3c2.313-7.2,13.052-14.271,13.052-14.271s11.012-7.065,15.365-6.8,10.059-6.252,10.059-6.252c4.213-10.739,8.026-5.876,8.026-5.876a9.593,9.593,0,0,1-.207,1.589c-1.478,11.788,23.9,49.037,24.263,49.695h0L392.9,426.26l2.446,74.505Z" transform="translate(-113.591 -125.529)" opacity="0.1"/>
    <path id="Path_49" data-name="Path 49" d="M396.719,582.061c-30.3,5.173-58.061-9.66-58.061-9.66l.273-5.026s.687-56.974-1.227-61.342-3.392-26.518-2.306-29.917-3.939-54.38-3.939-54.38l-.82-20.694-29.77-12.1,13.3-27.73a101.633,101.633,0,0,0,4.627-11.973c2.306-7.2,13.052-14.271,13.052-14.271s11.012-7.065,15.358-6.8,10.059-6.252,10.059-6.252c4.22-10.739,8.869-5.876,8.869-5.876,0,.51-.443.739-.207,1.589,3.252,11.433,23.088,49.037,23.451,49.695h0l2.446,58.874,2.446,74.505Z" transform="translate(-113.296 -125.513)" fill="#fff"/>
    <path id="Path_50" data-name="Path 50" d="M409.654,369.608c-3.259-1.36-20.524-21.071-20.524-21.071v-4.486c-.628-1.478-4.36-.576-7.391.458l1.3-27.249,1.478,1.227C387.756,329.913,409.278,368.95,409.654,369.608Z" transform="translate(-134.398 -126.117)" opacity="0.1"/>
    <path id="Path_51" data-name="Path 51" d="M410.762,367.4c-3.267-1.36-20.531-21.071-20.531-21.071v-4.486c-.628-1.478-4.36-.576-7.391.458l1.308-27.249,1.478,1.227C388.871,327.7,410.4,366.748,410.762,367.4Z" transform="translate(-134.685 -125.541)" fill="#fff"/>
    <path id="Path_52" data-name="Path 52" d="M352.523,518.123c.406,0,21.071-2.173,21.071-2.173s12.512,24.6,11.692,30.59-2.306,11.286-7.339,10.347-27.087.739-27.087.739Z" transform="translate(-126.34 -177.963)" opacity="0.1"/>
    <path id="Path_53" data-name="Path 53" d="M351.413,515.913c.406,0,21.071-2.173,21.071-2.173s12.5,24.611,11.692,30.59-2.313,11.286-7.339,10.347-27.087.739-27.087.739Z" transform="translate(-126.05 -177.386)" fill="#fff"/>
    <path id="Path_54" data-name="Path 54" d="M369.08,501.05s18.964,10.192,19.371,13.3-9.652-1.36-11.825-1.9a27.061,27.061,0,0,0-4.353-.68l-14.493.392Z" transform="translate(-128.146 -174.075)" fill="#cf6f80"/>
    <circle id="Ellipse_11" data-name="Ellipse 11" cx="1.995" cy="1.995" r="1.995" transform="translate(267.97 240.771)" opacity="0.1"/>
    <circle id="Ellipse_12" data-name="Ellipse 12" cx="1.995" cy="1.995" r="1.995" transform="translate(267.97 239.958)" fill="#3f3d56"/>
    <circle id="Ellipse_13" data-name="Ellipse 13" cx="1.995" cy="1.995" r="1.995" transform="translate(271.643 327.153)" opacity="0.1"/>
    <circle id="Ellipse_14" data-name="Ellipse 14" cx="1.995" cy="1.995" r="1.995" transform="translate(271.643 326.332)" fill="#3f3d56"/>
    <circle id="Ellipse_15" data-name="Ellipse 15" cx="1.995" cy="1.995" r="1.995" transform="translate(269.958 283.962)" opacity="0.1"/>
    <circle id="Ellipse_16" data-name="Ellipse 16" cx="1.995" cy="1.995" r="1.995" transform="translate(269.958 283.149)" fill="#3f3d56"/>
    <path id="Path_55" data-name="Path 55" d="M464.134,463.82s1.36,2.04,0,2.993.133,3.259.133,3.259-3.392,1.988-1.9,3.777.547,9.867.547,9.867l-4.08,6.755s.244,4.353.259,10.236c0,9.179-.539,22.083-3.525,27.966l.414,48.268s-14.286,5.218-26.244,3.629l-1.774-77.454s2.587-43.923,3.54-52.348a87.712,87.712,0,0,0,.68-13.192s-.406-13.185-1.774-19.3c0,0-1.478-26.51-1.626-33.849-.066-3.511.118-13.754.325-23.495.229-10.65.488-20.694.488-20.694l-2.7-21.344s2.7-.273,3.511.813a7.782,7.782,0,0,0,1.182.909h0c4.656,3.148,21.108,12.83,21.108,12.83s9.105,3.621,11.286,8.81,3.7,8.869,4.752,10.347,1.633,8.425,1.633,8.425,3.134,12.786,5.58,14.951,4.235,15.942,4.235,15.942l-21.618,17s-1.9,28.277-2.306,29.37S464.134,463.82,464.134,463.82Z" transform="translate(-146.182 -126.534)" fill="#fff"/>
    <path id="Path_56" data-name="Path 56" d="M464.936,463.737s1.352,2.04,0,2.993.126,3.259.126,3.259-3.37,2.01-1.892,3.8.547,9.866.547,9.866l-4.08,6.755s.244,4.353.266,10.236c0,9.179-.54,22.083-3.525,27.966l.406,48.268s-14.308,5.218-26.252,3.629l-1.766-77.454s2.587-43.923,3.54-52.348a86.9,86.9,0,0,0,.673-13.192s-.406-13.185-1.766-19.3c0,0-1.478-26.51-1.633-33.849-.067-3.511.126-13.754.325-23.495.229-10.65.488-20.694.488-20.694L426.83,318.54s3.562,0,4.383,1.1a7.011,7.011,0,0,0,1.182.909h0c4.656,3.148,21.115,12.83,21.115,12.83s9.1,3.621,11.278,8.81,3.7,8.869,4.76,10.347,1.626,8.425,1.626,8.425,3.134,12.786,5.58,14.951,4.213,15.912,4.213,15.912l-21.618,17s-1.9,28.277-2.313,29.37S464.936,463.737,464.936,463.737Z" transform="translate(-146.163 -126.451)" fill="#fff"/>
    <path id="Path_57" data-name="Path 57" d="M439.336,347.018l1.951,5.691-10.273,10.347c.229-10.643.488-20.694.488-20.694L427.94,320.73s3.562,0,4.383,1.1a6.742,6.742,0,0,0,1.182.9h0l8.736,25.2Z" transform="translate(-146.453 -127.023)" opacity="0.1"/>
    <path id="Path_58" data-name="Path 58" d="M438.226,344.809l1.959,5.691-10.273,10.347c.229-10.65.488-20.694.488-20.694l-3.57-21.632s3.57,0,4.383,1.1a7.391,7.391,0,0,0,1.182.909h0l8.743,25.195Z" transform="translate(-146.163 -126.446)" fill="#fff"/>
    <path id="Path_59" data-name="Path 59" d="M424.4,268.971a25.031,25.031,0,0,1-1.242,7.841,1.057,1.057,0,0,1-.8-.2c-.192-6.652-3.466-12.9-7.494-18.211a19.134,19.134,0,0,0-4.065-4.213,7.953,7.953,0,0,0-5.513-1.559c-2.217.3-4.176,1.811-6.415,2-2.956.244-5.6-1.8-8.536-1.907a8.388,8.388,0,0,0-6.275,2.912,17.213,17.213,0,0,0-3.363,6.238,36.5,36.5,0,0,0-1.877,10.761c-.037,2.069-.237,4.663-2.158,5.417a11.042,11.042,0,0,0-2.786-8.433l-.044-.044v-.606a25.289,25.289,0,1,1,50.578,0Z" transform="translate(-132.334 -106.918)" opacity="0.1"/>
    <path id="Path_60" data-name="Path 60" d="M406.859,222.985a17.412,17.412,0,0,0-12.283-.961c-2.047.606-3.976,1.589-6.053,2.084-4.434,1.072-9.608-.089-13.414,2.505-2.114,1.478-3.385,3.814-4.567,6.083l-2.956,5.632a36.545,36.545,0,0,0-3.91,9.608c-.673,3.392-.266,7.191,1.885,9.918,1.567,1.988,3.88,3.237,5.58,5.107a11.086,11.086,0,0,1,2.779,8.425c1.929-.739,2.114-3.341,2.158-5.41a36.5,36.5,0,0,1,1.877-10.761,17.154,17.154,0,0,1,3.363-6.238,8.4,8.4,0,0,1,6.275-2.912c2.956.1,5.609,2.143,8.536,1.9,2.217-.185,4.183-1.7,6.415-2a7.923,7.923,0,0,1,5.513,1.559,18.935,18.935,0,0,1,4.057,4.213c4.035,5.314,7.309,11.544,7.5,18.211.835.613,2.04-.185,2.454-1.131a27.013,27.013,0,0,1,.953-2.956c.606-1.042,1.766-1.6,2.675-2.38,2.306-1.988,2.882-5.336,2.794-8.374s-.68-6.119-.1-9.105c.347-1.833,1.131-3.548,1.559-5.358a7.006,7.006,0,0,0-.532-5.4c-1.478-2.291-4.59-2.742-7.3-2.956-3.082-.266-5.839.074-7.8-2.52a28.3,28.3,0,0,0-3.1-3.8C410.813,225.587,406.859,223.148,406.859,222.985Z" transform="translate(-129.607 -101.086)" fill="#512e4e"/>
    <path id="Path_61" data-name="Path 61" d="M309.93,429.409l-7.723-14.279-2.446,22.032s1.36,9.785,1.086,11.285,5.573,14.951,5.573,14.951,19.312,34.4,27.2,36.17L360.26,480.53l-7.065-8.972s-2.446-.953-3.06,0c0,0-13.118-22.571-14.478-24.2s-1.094-4.893-1.094-4.893-2.04-2.173-1.36-4.213-3.939-9.113-3.939-9.113l4.213-3.939Z" transform="translate(-113.006 -151.655)" opacity="0.1"/>
    <path id="Path_62" data-name="Path 62" d="M302.036,412.93,300,414.556l-2.446,22.032s1.36,9.785,1.086,11.285,5.58,14.951,5.58,14.951,19.3,34.4,27.19,36.17l26.651-19.038-7.073-8.972s-2.446-.953-3.06,0c0,0-13.118-22.571-14.478-24.2s-1.086-4.893-1.086-4.893-2.04-2.173-1.36-4.213-3.947-9.113-3.947-9.113l4.213-3.939Z" transform="translate(-112.43 -151.081)" fill="#fff"/>
    <path id="Path_63" data-name="Path 63" d="M469.446,525.063c1.478,1.8.547,9.859.547,9.859l-4.08,6.755s.244,4.361.259,10.236l-6.859,2.143a4.072,4.072,0,0,1-5.284-4.013l1.182-38.143,16,6.119c-1.36.946.133,3.267.133,3.267S467.953,523.267,469.446,525.063Z" transform="translate(-153.26 -176.906)" opacity="0.1"/>
    <path id="Path_64" data-name="Path 64" d="M470.554,523.955c1.478,1.8.547,9.866.547,9.866l-4.08,6.755s.244,4.353.266,10.236l-6.984,2.18a3.991,3.991,0,0,1-5.173-3.932l1.19-38.261,16.008,6.119c-1.367.946.126,3.259.126,3.259S469.076,522.167,470.554,523.955Z" transform="translate(-153.547 -176.619)" fill="#fff"/>
    <path id="Path_65" data-name="Path 65" d="M478.651,501.9s-1.086,6.94-3.806,7.346-3.939,11.226-6.652,10.842-.916-10.059-.82-11.936-2.956-9.652-.673-11.419,9.512,0,9.512,0Z" transform="translate(-156.345 -172.743)" fill="#cf6f80"/>
    <path id="Path_66" data-name="Path 66" d="M483.452,428.037l5.129-10.347s2.04,7.886,2.04,12.1,2.853,4.627,2.853,4.627,3.126,3.7,1.478,6.386-2.313,9.386-2.313,9.386.54,12.778-1.907,14.545-2.956,5.986-2.956,5.986-4.494,8.019-4.353,9.926-6.253,14.818-6.253,14.818,3.126-16.045-15.092-22.978c0,0-.14-5.447,1.219-6.94s3.481-2.173,2.151-9.719-.384-16.562-.384-18.373,4.08-13.1,4.08-13.1Z" transform="translate(-155.36 -152.323)" opacity="0.1"/>
    <path id="Path_67" data-name="Path 67" d="M486.215,415.69l4.479,1.478s2.047,7.886,2.047,12.1,2.853,4.627,2.853,4.627,3.126,3.7,1.478,6.386-2.306,9.386-2.306,9.386.54,12.778-1.907,14.545-2.993,5.986-2.993,5.986-4.486,8.019-4.346,9.926-6.26,14.818-6.26,14.818,3.134-16.045-15.092-22.978c0,0-.133-5.447,1.227-6.94s3.481-2.173,2.151-9.719-.384-16.562-.384-18.373,4.08-13.1,4.08-13.1Z" transform="translate(-155.905 -151.801)" fill="#fff"/>
    <path id="Path_68" data-name="Path 68" d="M360.15,777.708s7.139-4.486,11.825-1.227S360.15,777.708,360.15,777.708Z" transform="translate(-128.764 -245.635)" opacity="0.1"/>
    <path id="Path_69" data-name="Path 69" d="M435.21,759.776a14.453,14.453,0,0,1,11.625,4.9C452.142,770.389,435.21,759.776,435.21,759.776Z" transform="translate(-148.35 -241.575)" opacity="0.1"/>
    <g id="Group_25" data-name="Group 25" transform="translate(233.776 136.481)" opacity="0.1">
      <path id="Path_70" data-name="Path 70" d="M429.444,269.986c-.909.783-2.077,1.345-2.683,2.387a27.051,27.051,0,0,0-.946,2.956c-.414.961-1.619,1.744-2.454,1.138-.192-6.652-3.474-12.9-7.5-18.218a18.934,18.934,0,0,0-4.057-4.213,7.945,7.945,0,0,0-5.521-1.559c-2.217.3-4.168,1.811-6.408,2-2.956.251-5.609-1.8-8.544-1.9a8.366,8.366,0,0,0-6.267,2.919,17.117,17.117,0,0,0-3.363,6.23,36.541,36.541,0,0,0-1.877,10.761c-.044,2.062-.237,4.634-2.143,5.4a10.128,10.128,0,0,1,0,1.641c1.922-.739,2.114-3.341,2.158-5.41a36.494,36.494,0,0,1,1.877-10.761,17.153,17.153,0,0,1,3.363-6.238,8.388,8.388,0,0,1,6.267-2.912c2.956.1,5.617,2.143,8.544,1.9,2.217-.185,4.183-1.7,6.408-2a7.945,7.945,0,0,1,5.521,1.559,18.935,18.935,0,0,1,4.057,4.213c4.028,5.314,7.309,11.544,7.5,18.211.835.613,2.04-.185,2.454-1.131a28.666,28.666,0,0,1,.946-2.956c.606-1.042,1.774-1.6,2.683-2.38,2.306-1.988,2.882-5.336,2.794-8.374v-.281C432.112,265.6,431.41,268.286,429.444,269.986Z" transform="translate(-367.115 -245.686)"/>
      <path id="Path_71" data-name="Path 71" d="M371.156,271.532c-1.7-1.87-4.021-3.119-5.58-5.1a10.82,10.82,0,0,1-2.151-6.053,11.382,11.382,0,0,0,2.151,7.679c1.559,1.988,3.88,3.237,5.58,5.107a11.086,11.086,0,0,1,2.786,6.592,11.086,11.086,0,0,0-2.786-8.226Z" transform="translate(-363.385 -247.757)"/>
      <path id="Path_72" data-name="Path 72" d="M452.829,244.763c-.436,1.811-1.212,3.533-1.567,5.358a17.071,17.071,0,0,0-.229,3.7,14.349,14.349,0,0,1,.229-2.1c.355-1.833,1.131-3.548,1.567-5.358a9.092,9.092,0,0,0,.244-3.06,10.269,10.269,0,0,1-.244,1.463Z" transform="translate(-386.25 -243.3)"/>
    </g>
    <ellipse id="Ellipse_17" data-name="Ellipse 17" cx="72.014" cy="11.566" rx="72.014" ry="11.566" transform="translate(26.207 538.991)" fill="#ec76ac" opacity="0.1"/>
    <rect id="Rectangle_41" data-name="Rectangle 41" width="4.634" height="104.334" transform="translate(95.908 328.986)" fill="#535461"/>
    <path id="Path_73" data-name="Path 73" d="M200.314,642.01l-.288,4.7-.414,6.652-.17,2.764-.406,6.652-.177,2.764-.414,6.652-4.671,75.436a12.786,12.786,0,0,1-12.756,11.988H156.731a12.778,12.778,0,0,1-12.749-11.988l-4.649-75.488-.414-6.652-.17-2.764-.414-6.652-.17-2.764-.414-6.652-.3-4.7a6.651,6.651,0,0,1,6.652-7.029H193.78a6.607,6.607,0,0,1,6.533,7.08Z" transform="translate(-70.653 -209.009)" fill="#3f3d56"/>
    <path id="Path_74" data-name="Path 74" d="M152.883,592.24l-.414,6.629H90.994l-.414-6.629Z" transform="translate(-23.51 -154.538)" fill="#9d9cb5"/>
    <path id="Path_75" data-name="Path 75" d="M152.505,604.95l-.406,6.637H91.784l-.414-6.637Z" transform="translate(-23.716 -157.855)" fill="#9d9cb5"/>
    <path id="Path_76" data-name="Path 76" d="M152.128,617.68l-.406,6.629H92.574l-.414-6.629Z" transform="translate(-23.923 -161.176)" fill="#9d9cb5"/>
    <path id="Path_77" data-name="Path 77" d="M107.245,549.395c26.983,19.526,38.247,50.064,38.247,50.064s-32.519-1.116-59.509-20.642S47.75,528.76,47.75,528.76,80.254,529.869,107.245,549.395Z" transform="translate(-47.248 -181.305)" fill="#ec76ac"/>
    <path id="Path_78" data-name="Path 78" d="M47.72,528.76S81.48,547.5,92.308,563.008s53.176,36.451,53.176,36.451" transform="translate(-47.24 -181.305)" fill="none" stroke="#535461" stroke-miterlimit="10" stroke-width="2"/>
    <path id="Path_79" data-name="Path 79" d="M140.386,499.494c14.685,10.62,20.827,27.242,20.827,27.242s-17.7-.606-32.393-11.226S108,488.26,108,488.26,125.693,488.866,140.386,499.494Z" transform="translate(-62.969 -170.737)" fill="#ec76ac"/>
    <path id="Path_80" data-name="Path 80" d="M108,488.26s18.373,10.2,24.263,18.639,28.949,19.836,28.949,19.836" transform="translate(-62.969 -170.737)" fill="none" stroke="#535461" stroke-miterlimit="10" stroke-width="2"/>
    <path id="Path_81" data-name="Path 81" d="M201.633,530.569c-16.873,18.543-20.443,42.777-20.443,42.777s23.79-5.839,40.649-24.389,20.443-42.777,20.443-42.777S218.505,512.026,201.633,530.569Z" transform="translate(-82.067 -175.413)" fill="#ec76ac"/>
    <path id="Path_82" data-name="Path 82" d="M242.3,506.19s-21.98,19.009-27.567,32.1-33.539,35.054-33.539,35.054" transform="translate(-82.067 -175.416)" fill="none" stroke="#535461" stroke-miterlimit="10" stroke-width="2"/>
    <path id="Path_83" data-name="Path 83" d="M988.346,460.769s-12.2-60.707-7.531-68.26c0,0,.17-7.021-.111-15.971v-1.027a22.729,22.729,0,0,0,2.565,1.478,20.753,20.753,0,0,0,13.968,1.8l-3.7-4.117a6.822,6.822,0,0,1-2-3.348,7.013,7.013,0,0,1,.8-3.621c3.511-8.869,3.7-20.021-3.067-26.791-5.713-5.691-7.1-13.037-13.3-18.233-4.53-3.806-7.021-9.386-9.371-14.781a83.128,83.128,0,0,1-5.129-13.99c-.887-3.777-1.242-7.686-2.461-11.374s-3.5-7.272-7.073-8.921a26.693,26.693,0,0,1-3.843-1.692c-1.522-1.027-2.439-2.7-3.54-4.161-5.595-7.391-24.33-3.038-33.2-.037a18.676,18.676,0,0,0-6.563,3.636l.081-.133c.067-.111.148-.222.222-.333a11.662,11.662,0,0,0-2.483,2.772c-1.293,2.047-1.833,4.434-2.912,6.652-1.3,2.624-8.536,9.948-5.425,12.9a2.622,2.622,0,0,0,.739.473,6.392,6.392,0,0,0,3.7.37l-.133.318a21.6,21.6,0,0,0-1.6,8.2,22.183,22.183,0,0,0,22.379,21.987A22.593,22.593,0,0,0,926.2,323.5c.052.281.1.562.148.843a2.59,2.59,0,0,0,.052.333h0l-.392.547a.74.74,0,0,0-.067-.1l-11.6,16.215c-1.774,1.249-11.988,8.64-12.564,14.183-.606,6.068-1.212,13.17-1.212,13.17l-.081,1.522a4.568,4.568,0,0,1-3.7,1c-3.621-.591-3.621,13.3-3.621,13.3s-2.409,2.217-4.065.3-6.031,4.59-6.031,4.59l-27.419,1.182h0l-.628.037-1.478-4.575a1.929,1.929,0,0,0-2.417-1.234,2.219,2.219,0,0,0-.333.14l-.1.059-.192.133-.1.089a1.483,1.483,0,0,0-.148.155l-.089.1-.044.044h0a1.862,1.862,0,0,0-.266,1.655l1.271,3.924c-5.292,1.064-10.7,4.065-6.289,12.328l-22.364-4.131,7.235,6.075,37.352,7.708c-.5.887-.17,2.173,1.375,3.984,6.652,7.812,18.772,9.933,23.65,10.48a41.984,41.984,0,0,0,4.8,8.13l-.421,7.782s-12.35,59.317-14.611,62.325a35.155,35.155,0,0,0,3.126-4.117c-3.584,12.187-8.6,28.868-9.911,31.366-2.114,3.991-4.072,20.139-1.663,21.174.739.318,2.853.163,5.868-.067V555.5l-.133,50.693s.606,31.092-1.057,34.056-2.106,9.179-2.106,9.179-6.652,12.261-11.921,17.191a.8.8,0,0,1-.118.1l-.163-1.153s-6.334,8-20.346,7.546c0,0-8.433,5.484,4.072,5.78s28.476-.443,28.476-.443,11.153-17,20.494-14.781v12.882h2.86V663.458a11.729,11.729,0,0,0,5.092-7.708,9.371,9.371,0,0,0-3.341-8.669,5.543,5.543,0,0,1-1.825-4.05l-.1.089a7.82,7.82,0,0,0-.1-.8c-.82-6.652-1.848-20.376,1.781-30.531,4.974-13.924,6.482-33.317,2.86-44.861a103.151,103.151,0,0,1-2.875-11.241c-.089-.48-.17-.939-.244-1.367a58.278,58.278,0,0,1,7.339,1.478c8.388,2.313,26.739,2.742,42.408,2.616.037.429.081.88.133,1.33A48.417,48.417,0,0,0,952.2,569c1.966,5.913,2.868,31.979,2.868,31.979s2.535,21.433,1.153,30.154c-.739,4.848-1.478,9.719-1.9,14.611v.1s-4.154,11.825-7.191,18.248c-.074.162-.155.325-.229.48a9.608,9.608,0,0,0-2.372.525s-4.072,8.13-8.13,9.475-2.712,5.772,6.474,4.146,23.059-2.956,23.059-2.956l.6-8.292,2.823-3.533-.739,8.27,3.008-.591-.4-10.059,4.619-5.779s5.58-4.967-2.712-14.737v.214c-.089-.14-.17-.288-.266-.429v-.044c-1.375-2.129-2.469-6.1-.466-13.141,3.621-12.727,5.728-24.278,5.728-24.278s8.085-30.945-1.633-45.585h.429a24.627,24.627,0,0,1-2.092-6.5q-.074-.4-.133-.82c7.191-.414,14.249-1.715,20.006-4.523C994.679,545.895,991.213,472.461,988.346,460.769Zm-91.3-51.217v.148l-1.478.074Zm-5.07.7a1.634,1.634,0,0,0-.665.318,6.563,6.563,0,0,0-1.16,3.038l-2.306-.517s-1.619-.347-3.947-.739l-1.1-1.109C885.83,410.993,888.978,410.624,891.979,410.254Z" transform="translate(-249.4 -112.14)" fill="url(#linear-gradient-2)"/>
    <path id="Path_84" data-name="Path 84" d="M972.2,743.008l-.879,10.473,2.949-.591-.443-11.359Z" transform="translate(-253.327 -193.493)" fill="#1d2366"/>
    <path id="Path_85" data-name="Path 85" d="M914.523,712.745c-3.555,10.125-2.55,23.79-1.752,30.427.3,2.454.569,3.947.569,3.947s-5.314,12.106-5.757,12.564-15.639,9.733-15.639,9.733l-10.62,6.2s-10.776-4.723-5.609-6.349a7.842,7.842,0,0,0,2.786-1.9c5.173-4.915,11.67-17.132,11.67-17.132s.443-6.2,2.069-9.15,1.035-33.938,1.035-33.938l.126-50.515V650.05l20.213.148a45.742,45.742,0,0,0,.872,6.652,101.669,101.669,0,0,0,2.816,11.2C920.865,679.576,919.386,698.873,914.523,712.745Z" transform="translate(-262.928 -212.954)" fill="#ffb0b1"/>
    <path id="Path_86" data-name="Path 86" d="M913.341,780s-5.314,12.106-5.757,12.564-15.639,9.733-15.639,9.733l-10.62,6.2s-10.776-4.723-5.609-6.349a7.842,7.842,0,0,0,2.786-1.9l.458,3.23,3.54-.148,30.3-27.264C913.067,778.509,913.341,780,913.341,780Z" transform="translate(-262.928 -245.837)" opacity="0.1"/>
    <path id="Path_87" data-name="Path 87" d="M906.343,777l-30.472,27.449-3.54.148-.739-5.173s-6.193,7.967-19.955,7.524c0,0-8.263,5.462,3.984,5.757s27.885-.443,27.885-.443,10.923-17,20.066-14.781v12.838h2.808V797.361a11.669,11.669,0,0,0,4.981-7.686,9.416,9.416,0,0,0-3.259-8.632A5.565,5.565,0,0,1,906.343,777Z" transform="translate(-256.299 -246.08)" fill="#1d2366"/>
    <path id="Path_88" data-name="Path 88" d="M1013.86,728.337c-1.966,7.021-.894,10.975.451,13.1v.044a24.206,24.206,0,0,1,3.533,8.625l.118.665L1004.1,770.981l-7.524,2.956s-12.1-4.131-9.889-5.314c.554-.288,1.419-1.826,2.409-3.947,2.956-6.393,7.036-18.188,7.036-18.188v-.1c.429-4.87,1.109-9.726,1.862-14.56,1.352-8.7-1.131-30.05-1.131-30.05s-.887-25.963-2.808-31.868a48.728,48.728,0,0,1-1.722-9.194c-.4-3.7-.488-6.74-.488-6.74s7.967-11.086,22.571.887a16.066,16.066,0,0,1,3.052,3.311c10.088,14.353,1.966,45.97,1.966,45.97S1017.4,715.647,1013.86,728.337Z" transform="translate(-292.179 -212.76)" fill="#ffb0b1"/>
    <path id="Path_89" data-name="Path 89" d="M1017.992,783.232l-13.865,20.213L996.6,806.4s-12.1-4.131-9.889-5.314c.554-.288,1.419-1.825,2.409-3.947,5.122-.044,7.775,4.833,7.775,4.833l6.489-1.035s8.558-16.821,10.48-17.849.3-7.679.3-7.679V773.72c.052.059.1.126.155.185v.044a24.2,24.2,0,0,1,3.533,8.625Z" transform="translate(-292.187 -245.224)" opacity="0.1"/>
    <path id="Path_90" data-name="Path 90" d="M993.821,802.562s-3.7-6.785-10.776-4.279c0,0-3.984,8.13-7.967,9.445s-2.653,5.75,6.349,4.131S1004,808.9,1004,808.9l.591-8.27,9.15-11.655s5.454-4.944-2.661-14.678v1.692s1.626,6.652-.3,7.679-10.45,17.856-10.45,17.856Z" transform="translate(-288.665 -245.375)" fill="#1d2366"/>
    <path id="Path_91" data-name="Path 91" d="M920.376,650.178a45.751,45.751,0,0,0,.872,6.652,92.709,92.709,0,0,0-21.108-.214V650.03Z" transform="translate(-269.667 -212.949)" opacity="0.1"/>
    <path id="Path_92" data-name="Path 92" d="M1020.214,660.015s-11.825.577-25.926.695c-.4-3.7-.488-6.74-.488-6.74s7.967-11.086,22.571.887a16.068,16.068,0,0,1,3.052,3.311A18.062,18.062,0,0,0,1020.214,660.015Z" transform="translate(-294.106 -212.757)" opacity="0.1"/>
    <path id="Path_93" data-name="Path 93" d="M993.366,612.978s-51.794,2.505-67.58-1.922-31.432-.591-33.79-1.619-.443-17.117,1.626-21.1,13.421-44.27,13.421-44.27l10.923-56.952,11.507-3.171.813-.229,20.051-5.528,14.693-4.057s29.215,114.06,26.71,122.47a21.537,21.537,0,0,0-.429,9.9A24.707,24.707,0,0,0,993.366,612.978Z" transform="translate(-267.258 -167.05)" fill="#1d2366"/>
    <path id="Path_94" data-name="Path 94" d="M874.078,439s-10.347,11.086-2.513,17.265,12.985.591,12.985.591Z" transform="translate(-261.445 -157.884)" fill="#c7daf5"/>
    <path id="Path_95" data-name="Path 95" d="M874.078,439s-10.347,11.086-2.513,17.265,12.985.591,12.985.591Z" transform="translate(-261.445 -157.884)" opacity="0.1"/>
    <path id="Path_96" data-name="Path 96" d="M981.295,333.246s-1.212,1.153-3.038,2.853c-2.6,2.432-6.452,5.986-9.867,8.965-4.73,4.117-8.632,7.139-7.235,4.56s1.131-7.073.436-11.278c-.052-.281-.1-.562-.148-.835a77.448,77.448,0,0,0-2.284-9.135s7.642-9.874,11.869-13.769c1.574-1.478,2.675-2.084,2.742-1.057.074,1.382,1.109,4.434,2.395,7.671.037.1.074.2.118.3.857,2.217,1.826,4.493,2.675,6.459C980.26,331,981.295,333.246,981.295,333.246Z" transform="translate(-285.067 -125.016)" fill="#ffb0b1"/>
    <path id="Path_97" data-name="Path 97" d="M976.284,321.527a21.936,21.936,0,0,1-14.693,16.821,76.912,76.912,0,0,0-2.431-9.97s14.39-18.587,14.611-14.826C973.823,314.979,974.946,318.142,976.284,321.527Z" transform="translate(-285.067 -125.019)" opacity="0.1"/>
    <path id="Path_98" data-name="Path 98" d="M950.741,353.074l1.862-2.624s1.234,7.524,5.772,4.205,4.76,24.973,4.76,24.973l-4.87,72.82-35.194-2.106,1-35.187,3.984-17.738,9.852-25.786,5.861-8.521Z" transform="translate(-275.65 -134.778)" opacity="0.1"/>
    <path id="Path_99" data-name="Path 99" d="M963.143,380.225l-4.434,65.843-.466,6.977L938.62,451.87l-.739-.044-14.781-.887,1-35.194,3.984-17.738,9.852-25.786,5.861-8.521,6.977-10.073,1.862-2.616s1.234,7.524,5.772,4.205l.1-.066h0C962.936,352.34,963.143,380.225,963.143,380.225Z" transform="translate(-275.658 -134.924)" fill="#1d2366"/>
    <path id="Path_100" data-name="Path 100" d="M914.408,406.26s-1.766,3.7-5.314,3.1-3.54,13.3-3.54,13.3-2.358,2.217-3.984.3-5.913,4.575-5.913,4.575L868.8,428.713s11.951,5.462,9.608,21.987c0,0,40.575-2.513,41.9-6.349S914.408,406.26,914.408,406.26Z" transform="translate(-261.489 -149.341)" fill="#fff"/>
    <path id="Path_101" data-name="Path 101" d="M914.408,406.26s-1.766,3.7-5.314,3.1-3.54,13.3-3.54,13.3-2.358,2.217-3.984.3-5.913,4.575-5.913,4.575L868.8,428.713s11.951,5.462,9.608,21.987c0,0,40.575-2.513,41.9-6.349S914.408,406.26,914.408,406.26Z" transform="translate(-261.489 -149.341)" opacity="0.03"/>
    <path id="Path_102" data-name="Path 102" d="M777.66,389.76l7.08,6.046,58.283,12.246-7.228-7.376Z" transform="translate(-202.794 -101.704)" fill="#fff"/>
    <path id="Path_103" data-name="Path 103" d="M945.763,354.71c-.968,1.478-3.74,9.046-6.053,15.653-1.929,5.506-3.54,10.347-3.54,10.347s-3.762,24.493-5.683,28.92-.88,21.692-.88,21.692l-7.161,42.637s-3.245,21.987-8.255,35.12c-4.944,12.926-10.45,18.987-10.62,19.179,2.217-3,14.3-62.081,14.3-62.081l3.991-74.512s.584-7.08,1.175-13.133S935.6,364.215,935.6,364.215L947.145,347.8C948.306,349.352,947.53,352.057,945.763,354.71Z" transform="translate(-270.562 -134.086)" fill="#fff"/>
    <path id="Path_104" data-name="Path 104" d="M910.475,480.949s-17-.739-25.232-10.628,19.031-3.947,19.031-3.947L911.362,468Z" transform="translate(-265.375 -164.565)" fill="#ffb0b1"/>
    <path id="Path_105" data-name="Path 105" d="M1005.356,565.9a21.537,21.537,0,0,0-.429,9.9c-18.543,1.316-38.38-3.7-38.38-3.7-3.7,3.4-13.429,8.411-13.429,8.411l-5.307-65.777c-3.392-8.869-4.723-55.334-4.723-55.334s.3-2.432.739-6.075a.7.7,0,0,1,.037-.273c1.323-10.177,3.947-29.282,5.233-31.861,1.774-3.547-5.454-12.985-5.454-12.985l3.289-28.047.4-3.385c6.932-3.1,12.246-12.985,12.246-12.985l4.08-7.147h0c4.434-2.845,4.663,25.039,4.663,25.039l-4.434,65.843,14.693-4.057S1007.862,557.486,1005.356,565.9Z" transform="translate(-280.874 -136.339)" opacity="0.1"/>
    <path id="Path_106" data-name="Path 106" d="M1024.7,564.223c-20.213,10.036-56.952.739-56.952.739-3.7,3.4-13.429,8.411-13.429,8.411L949.005,507.6c-3.385-8.869-4.715-55.334-4.715-55.334s4.272-34.669,6.046-38.21c.517-1.035.266-2.572-.347-4.227a53.493,53.493,0,0,1-3.237-24.751l1.419-12.054.392-3.378c6.94-3.1,12.254-12.993,12.254-12.993l3.7-6.474,6.8-11.928,3.222-5.646.547.5,4.176,3.784,4.434,3.7c5.787,4.878,15.786,13.466,20.945,18.72,4.538,4.627,5.972,22.623,6.385,36.17.273,8.921.111,15.912.111,15.912-4.575,7.531,7.391,67.994,7.391,67.994C1021.308,491.055,1024.7,564.223,1024.7,564.223Z" transform="translate(-281.187 -130.12)" fill="#fff"/>
    <path id="Path_107" data-name="Path 107" d="M978.63,364.572s-13.872,26.407-12.261,36.443,6.193,21.4,3.984,24.049a8.167,8.167,0,0,1-6.5,3.245c-2.217.148-8.13,4.279-8.13,4.723s-5.462.443-10.347,2.513a64.421,64.421,0,0,1-12.1,3.245s-14.042-.443-15.35.887-2.653,9.29.148,15.639,5.913,11.086,8.263,11.951,17.265-4.131,29.363-5.314,25.232-10.768,25.232-10.768,14.464-5.173,17-13.872-3.1-56.509-3.1-56.509S990.581,358.519,978.63,364.572Z" transform="translate(-273.918 -138.191)" opacity="0.03"/>
    <path id="Path_108" data-name="Path 108" d="M976.238,361.573s-13.872,26.414-12.246,36.443,6.193,21.4,3.976,24.057a8.13,8.13,0,0,1-6.489,3.245c-2.217.148-8.13,4.279-8.13,4.723s-5.462.443-10.347,2.505a65.057,65.057,0,0,1-12.1,3.245s-14.042-.443-15.343.887-2.661,9.3.148,15.639,5.913,11.086,8.263,11.951,17.265-4.131,29.363-5.306,25.232-10.776,25.232-10.776,14.456-5.173,16.962-13.865-3.1-56.516-3.1-56.516S988.189,355.527,976.238,361.573Z" transform="translate(-273.299 -137.409)" opacity="0.03"/>
    <path id="Path_109" data-name="Path 109" d="M978.046,362.776S964.173,389.19,965.8,399.219s6.193,21.4,3.984,24.049a8.129,8.129,0,0,1-6.5,3.252c-2.217.148-8.13,4.279-8.13,4.715s-5.454.443-10.347,2.513a64.569,64.569,0,0,1-12.1,3.245s-14.042-.443-15.35.887-2.653,9.3.148,15.639,5.913,11.086,8.263,11.951,17.265-4.131,29.363-5.314,25.232-10.768,25.232-10.768,14.464-5.173,17-13.872-3.06-56.509-3.06-56.509S989.989,356.76,978.046,362.776Z" transform="translate(-273.769 -137.725)" fill="#fff"/>
    <path id="Path_110" data-name="Path 110" d="M996.75,458.767s-11.086-2.217-7.228,1.478,3.836,6.932,8.558,6.785S996.75,458.767,996.75,458.767Z" transform="translate(-292.777 -162.87)" opacity="0.1"/>
    <path id="Path_111" data-name="Path 111" d="M1024.478,566.58s-5.011,3.392,4.575,11.212S1024.478,566.58,1024.478,566.58Z" transform="translate(-301.769 -191.174)" opacity="0.1"/>
    <path id="Path_112" data-name="Path 112" d="M1011.924,604.31c0,.443-1.774,16.259,4.863,20.213S1011.924,604.31,1011.924,604.31Z" transform="translate(-298.779 -201.019)" opacity="0.1"/>
    <path id="Path_113" data-name="Path 113" d="M864.973,436.59c-5.351.185-16.91,1.818-10.916,13,5.3,9.9,14.2,3.281,19.216-1.737a18.883,18.883,0,0,0-8.3-11.263Z" transform="translate(-257.203 -157.255)" fill="#ffb0b1"/>
    <path id="Path_114" data-name="Path 114" d="M881.39,451Z" transform="translate(-264.774 -161.015)" fill="#ffb0b1"/>
    <path id="Path_115" data-name="Path 115" d="M880.74,451.629l.222-.229Z" transform="translate(-264.605 -161.119)" fill="#ffb0b1"/>
    <path id="Path_116" data-name="Path 116" d="M985.059,341.179c-5.676,3.88-10.436,7.154-11.367,7.834-2.542,1.885-7.391,12.948-10.517,18.595-2.491,4.545-10.583,5.713-13.636,6l.392-3.378c6.94-3.1,12.254-12.993,12.254-12.993L975.9,333.19l4.723,4.294Z" transform="translate(-282.557 -130.274)" opacity="0.1"/>
    <path id="Path_117" data-name="Path 117" d="M985.059,340.579c-5.676,3.88-10.436,7.154-11.367,7.841-2.542,1.877-7.391,12.941-10.517,18.587-2.491,4.545-10.583,5.713-13.636,6l.392-3.378c6.94-3.1,12.254-12.993,12.254-12.993L975.9,332.59l4.723,4.279S982.4,338.333,985.059,340.579Z" transform="translate(-282.557 -130.118)" fill="#dce7ff"/>
    <path id="Path_118" data-name="Path 118" d="M967.34,310.181a21.921,21.921,0,1,1-18.635-21.669,21.884,21.884,0,0,1,18.635,21.669Z" transform="translate(-275.761 -118.551)" fill="#ffb0b1"/>
    <path id="Path_119" data-name="Path 119" d="M1006.156,383.9a19.483,19.483,0,0,1-7.073-7.6c-1.234-2.439-2.055-5.255-4.161-6.984-1.9-1.552-4.434-1.929-6.8-2.624-7.775-2.3-14.294-9.393-14.537-17.494-.118-3.814,1.072-7.62.532-11.4a12.623,12.623,0,0,0-2.468-5.876,20.227,20.227,0,0,0-2.136-2.3c-1.035-.976-2.121-1.922-3.067-2.956a11.475,11.475,0,0,1-1.552-2.106,10.136,10.136,0,0,1-.85-1.958c-1.478-4.523-.133-9.889-1.759-14.464l-.089-.251c-.613-1.626-1.862-3.252-3.6-3.378s-3.222,1.316-4.878,1.959c-3.466,1.345-7.206-.946-10.1-3.281s-6.149-5-9.822-4.486c-2.432.347-4.353,2-6.592,2.86a9.243,9.243,0,0,1-1.559.451,21.913,21.913,0,0,1,42.252,8.167,21.688,21.688,0,0,1-.48,4.575c.037.1.074.2.118.3.857,2.217,1.826,4.493,2.675,6.459l4.176,3.784,4.434,3.7c5.787,4.878,15.786,13.466,20.945,18.72C1004.309,352.367,1005.728,370.356,1006.156,383.9Z" transform="translate(-276.323 -118.551)" opacity="0.1"/>
    <path id="Path_120" data-name="Path 120" d="M925.268,282.13c1.057-2.151,1.582-4.56,2.845-6.6,1.855-2.956,5.092-4.848,8.418-5.994,8.684-2.993,27.035-7.339,32.519,0,1.079,1.478,1.973,3.119,3.466,4.139a25.741,25.741,0,0,0,3.762,1.692c3.5,1.641,5.728,5.218,6.918,8.869s1.545,7.568,2.417,11.33a83.314,83.314,0,0,0,5.026,13.946c2.3,5.366,4.737,10.931,9.172,14.722,6.053,5.173,7.391,12.5,13.008,18.174,6.652,6.74,6.437,17.863,3.008,26.7a7.329,7.329,0,0,0-.783,3.607A7.072,7.072,0,0,0,1017,376.05l3.636,4.1a20.447,20.447,0,0,1-22.342-10.3c-1.234-2.439-2.055-5.247-4.168-6.984-1.892-1.552-4.434-1.922-6.792-2.616-7.775-2.306-14.293-9.408-14.537-17.508-.118-3.806,1.072-7.612.532-11.382a12.565,12.565,0,0,0-2.476-5.913c-2.032-2.653-5.1-4.434-6.755-7.391-2.8-4.944-.672-11.367-2.69-16.673-.621-1.626-1.862-3.252-3.6-3.378s-3.222,1.316-4.885,1.959c-3.459,1.345-7.2-.939-10.088-3.281s-6.149-5-9.83-4.479c-2.432.34-4.346,2-6.585,2.86-1.655.636-5.011,1.2-6.459-.192C916.9,292.055,923.99,284.761,925.268,282.13Z" transform="translate(-274.641 -112.612)" fill="#591d4b"/>
    <path id="Path_121" data-name="Path 121" d="M1000.294,369.949c-1.242-2.439-2.055-5.247-4.168-6.977-1.892-1.552-4.434-1.929-6.8-2.624-7.768-2.3-14.286-9.4-14.537-17.5-.118-3.806,1.072-7.62.539-11.389a12.638,12.638,0,0,0-2.476-5.876c-2.04-2.653-5.107-4.434-6.755-7.391-2.8-4.937-.672-11.359-2.7-16.673-.613-1.619-1.862-3.245-3.592-3.378s-3.23,1.323-4.885,1.966c-3.459,1.345-7.206-.946-10.088-3.281s-6.156-5-9.83-4.486c-2.432.347-4.353,2-6.585,2.86-1.655.636-5.018,1.212-6.467-.185-3.045-2.956,4.043-10.236,5.314-12.852,1.057-2.158,1.582-4.56,2.853-6.6.067-.111.14-.222.214-.333a11.737,11.737,0,0,0-2.432,2.764c-1.264,2.04-1.789,4.434-2.845,6.6-1.279,2.616-8.366,9.918-5.314,12.852,1.478,1.4,4.8.828,6.459.192,2.217-.865,4.154-2.52,6.585-2.86,3.7-.525,6.947,2.143,9.83,4.479s6.652,4.627,10.1,3.281c1.655-.643,3.1-2.092,4.878-1.959s2.956,1.752,3.6,3.378c2.018,5.306-.111,11.729,2.69,16.673,1.656,2.9,4.723,4.723,6.755,7.391a12.564,12.564,0,0,1,2.476,5.913c.539,3.769-.65,7.575-.532,11.382.244,8.13,6.762,15.2,14.537,17.508,2.343.695,4.9,1.064,6.792,2.616,2.121,1.737,2.956,4.545,4.168,6.984a20.447,20.447,0,0,0,22.342,10.3l-1.715-1.936A20.668,20.668,0,0,1,1000.294,369.949Z" transform="translate(-274.584 -115.15)" opacity="0.1"/>
    <path id="Path_122" data-name="Path 122" d="M956.464,355.284c-.968,1.478-3.74,9.046-6.053,15.653-2.166-.843-4.131-6.216-4.131-6.216L957.824,348.3C959.007,349.926,958.231,352.624,956.464,355.284Z" transform="translate(-281.706 -134.217)" opacity="0.1"/>
    <path id="Path_123" data-name="Path 123" d="M957.064,354.687c-.968,1.478-3.74,9.046-6.053,15.653-2.166-.835-4.131-6.216-4.131-6.216l11.544-16.415C959.607,349.329,958.831,352.034,957.064,354.687Z" transform="translate(-281.863 -134.063)" fill="#dce7ff"/>
    <path id="Path_124" data-name="Path 124" d="M867.549,451.316l-6.4-20.184a1.885,1.885,0,0,1,1.227-2.372h0a1.892,1.892,0,0,1,2.365,1.227l6.4,20.162-.636,4.22Z" transform="translate(-259.469 -155.189)" fill="#be8b87"/>
    <path id="Path_125" data-name="Path 125" d="M861.862,429.369h0a1.892,1.892,0,0,1,2.372,1.227l6.4,20.162-.48,3.163.466.488.635-4.22-6.437-20.162a1.892,1.892,0,0,0-2.365-1.227h0a1.892,1.892,0,0,0-.983.739,2.567,2.567,0,0,1,.392-.17Z" transform="translate(-259.576 -155.199)" fill="#fff" opacity="0.1"/>
    <path id="Path_126" data-name="Path 126" d="M822.6,400.278l3.592-1.138-.525,3.459-.111.761-1.049-1.094Z" transform="translate(-214.52 -104.151)" fill="#efc8c4"/>
    <path id="Path_127" data-name="Path 127" d="M872.42,461.914a.739.739,0,0,1,.229-.192.325.325,0,0,1,.347,0,.917.917,0,0,1,.126.2.636.636,0,0,0,.458.3l-.111.739Z" transform="translate(-262.434 -163.8)" fill="#727a9c"/>
    <path id="Path_128" data-name="Path 128" d="M861.13,441.7s12.838-.074,9.815,5.388-7.745,6.119-7.745,6.119Z" transform="translate(-259.488 -158.588)" fill="#ffb0b1"/>
    <path id="Path_129" data-name="Path 129" d="M693.474,110.05h-.554a63.215,63.215,0,0,0-52.777,28.89,63.215,63.215,0,0,0-52.777-28.89h-.554a62.82,62.82,0,0,0-62.222,62.784c0,20.553,9,49.717,26.555,73.714,33.443,45.726,89,85.731,89,85.731s55.555-40,88.991-85.731c17.56-24,26.555-53.161,26.555-73.714a62.82,62.82,0,0,0-62.214-62.784Zm-7.93,140.016a12.453,12.453,0,0,1-11.581-8H660.777a4.168,4.168,0,0,1-3.924-2.838l-4.05-12.2-12.815,44.78a4.146,4.146,0,0,1-3.976,2.993h-.259a4.094,4.094,0,0,1-3.843-3.429L618.7,191.938l-9.652,47a4.117,4.117,0,0,1-4,3.126H586.479a4.131,4.131,0,1,1,0-8.255H601.8l13.673-63.2a4.146,4.146,0,0,1,8.13.34l13.488,81.031,11.485-40.065a4.065,4.065,0,0,1,3.865-2.956h.081a4.124,4.124,0,0,1,3.917,2.838l7.324,22.032H673.8A12.387,12.387,0,1,1,685.566,250.1Z" transform="translate(-171.672 -72.049)" fill="#ec76ac"/>
  </g>
</svg>
