<svg xmlns="http://www.w3.org/2000/svg" width="722" height="573.611" viewBox="0 0 722 573.611">
  <g id="Group_45" data-name="Group 45" transform="translate(0 4.329)">
    <path id="Path_130" data-name="Path 130" d="M682.382,670.593l-19.269,17.739,15.313-25.695c-12.065-21.878-31.8-40.787-31.8-40.787s-40.936,39.22-40.936,70.05S624.022,733.5,646.63,733.5s40.936-10.765,40.936-41.594C687.566,685.039,685.535,677.761,682.382,670.593Z" transform="translate(-239 -164.859)" fill="#f2f2f2"/>
    <path id="Path_131" data-name="Path 131" d="M658.157,689.293v1.52c-.09,17.664-3.069,31.446-8.915,41.151-.083.143-.173.278-.256.421l-.654-.4-.624-.391c6.485-10.479,8.779-25.292,8.862-40.7.008-.5.015-1,.008-1.5-.023-6.522-.421-13.12-1.061-19.53-.045-.5-.1-1-.15-1.5-.888-8.456-2.167-16.536-3.476-23.555-.09-.5-.188-.993-.286-1.482-2.264-11.871-4.574-20.47-5.1-22.373-.06-.233-.1-.361-.105-.391l.715-.2.008-.008.722-.2c.008.03.135.459.346,1.256.8,2.979,2.9,11.066,4.95,21.734.09.482.188.978.278,1.475,1.068,5.695,2.114,12.059,2.942,18.74q.316,2.517.564,4.965c.06.5.113,1.008.158,1.5Q658.12,680.208,658.157,689.293Z" transform="translate(-239 -164.859)" fill="#fff"/>
    <path id="Path_132" data-name="Path 132" d="M653.14,643.131c-.5.068-1.016.135-1.535.188a41.5,41.5,0,0,1-4.243.218,40.372,40.372,0,0,1-17.453-3.942c-.316.4-.632.8-.955,1.2a41.867,41.867,0,0,0,18.409,4.243,42.943,42.943,0,0,0,4.529-.241c.512-.053,1.023-.12,1.527-.2a41.516,41.516,0,0,0,12-3.634q-.485-.621-.948-1.219a40.229,40.229,0,0,1-11.33,3.378Z" transform="translate(-239 -164.859)" fill="#fff"/>
    <path id="Path_133" data-name="Path 133" d="M656.924,668.311q-.779.045-1.557.045c-.158.008-.323.008-.482.008a40.585,40.585,0,0,1-33.312-17.4c-.3.444-.6.888-.895,1.34a42.092,42.092,0,0,0,34.207,17.566c.211,0,.421,0,.632-.008.527-.008,1.046-.023,1.565-.045a41.87,41.87,0,0,0,22.306-7.824c-.241-.444-.482-.888-.73-1.332a40.306,40.306,0,0,1-21.734,7.651Z" transform="translate(-239 -164.859)" fill="#fff"/>
    <path id="Path_134" data-name="Path 134" d="M658.157,689.293c-.527.045-1.053.075-1.58.1-.564.023-1.128.038-1.693.038a40.7,40.7,0,0,1-39.014-29.28c-.339.609-.677,1.211-1,1.821a42.185,42.185,0,0,0,40.015,28.964c.564,0,1.128-.008,1.685-.038.534-.015,1.061-.045,1.587-.083a42.062,42.062,0,0,0,27.76-13.549c-.158-.557-.339-1.106-.519-1.663A40.564,40.564,0,0,1,658.157,689.293Z" transform="translate(-239 -164.859)" fill="#fff"/>
    <circle id="Ellipse_18" data-name="Ellipse 18" cx="98.754" cy="98.754" r="98.754" transform="translate(0 3.024)" fill="#e4e4e4"/>
    <circle id="Ellipse_19" data-name="Ellipse 19" cx="82.295" cy="82.295" r="82.295" transform="translate(16.459 19.483)" fill="#ec76ac"/>
    <circle id="Ellipse_20" data-name="Ellipse 20" cx="98.754" cy="98.754" r="98.754" transform="translate(262.246 3.024)" fill="#e4e4e4"/>
    <circle id="Ellipse_21" data-name="Ellipse 21" cx="82.295" cy="82.295" r="82.295" transform="translate(278.705 19.483)" fill="#fff"/>
    <circle id="Ellipse_22" data-name="Ellipse 22" cx="98.754" cy="98.754" r="98.754" transform="translate(524.492 3.024)" fill="#e4e4e4"/>
    <circle id="Ellipse_23" data-name="Ellipse 23" cx="82.295" cy="82.295" r="82.295" transform="translate(540.951 19.483)" fill="#fff"/>
    <path id="Path_135" data-name="Path 135" d="M330.761,297.4q-.221,0-.442-.011a9.035,9.035,0,0,1-6.7-3.48L311,277.675a9.054,9.054,0,0,1,1.586-12.691l.454-.354a9.056,9.056,0,0,1,12.692,1.586,8.044,8.044,0,0,0,12.189.594l25.632-27.058a9.044,9.044,0,0,1,12.786-.345l.418.4a9.043,9.043,0,0,1,.345,12.785l-39.775,41.983a9.033,9.033,0,0,1-6.563,2.824Z" transform="translate(-239 -165.859)" fill="#fff"/>
    <path id="Path_136" data-name="Path 136" d="M556.657,247.641h-65v-56.53a13.225,13.225,0,0,1,13.437-12.971H526.7c16.518,0,29.957,12.972,29.957,28.916Z" transform="translate(-239 -165.859)" fill="#2f2e41"/>
    <path id="Path_137" data-name="Path 137" d="M341.722,554.819H329.383l-5.871-47.6h18.212Z" transform="translate(0 1)" fill="#ffb6b6"/>
    <path id="Path_138" data-name="Path 138" d="M583.869,732.639H544.081v-.5a15.487,15.487,0,0,1,15.485-15.486h24.3Z" transform="translate(-239 -164.859)" fill="#2f2e41"/>
    <path id="Path_139" data-name="Path 139" d="M227.987,554.819h-12.34l-5.87-47.6h18.212Z" transform="translate(0 1)" fill="#ffb6b6"/>
    <path id="Path_140" data-name="Path 140" d="M470.134,732.639H430.346v-.5a15.487,15.487,0,0,1,15.485-15.486h24.3Z" transform="translate(-239 -164.859)" fill="#2f2e41"/>
    <path id="Path_141" data-name="Path 141" d="M242.886,172.448l-8.052,51.332,76.494,1.006-10.065-49.318Z" transform="translate(0 0.34)" fill="#ffb6b6"/>
    <path id="Path_142" data-name="Path 142" d="M476.054,377.105l-24.363,64.872-3.02,268.84H469.3l49.319-216,45.292,210.361h20.13L569.955,468.65s4.155-47.474-17.111-75.488l-5.176-14.955Z" transform="translate(-239 -164.859)" fill="#2f2e41"/>
    <path id="Path_143" data-name="Path 143" d="M580.558,427.676a15.1,15.1,0,0,1-9.675-21.036L538.341,300.546l23.936-4.745L592.04,399.8a15.182,15.182,0,0,1-11.482,27.88Z" transform="translate(-239 -165.554)" fill="#ffb6b6"/>
    <path id="Path_144" data-name="Path 144" d="M537.492,366.656l-52.729-1.018a6.894,6.894,0,0,1-6.534-5.193c-2.827-11.192-9.046-40.359-5.747-69.41A42.406,42.406,0,1,1,555.622,306.7c-6.637,25.206-10.387,43.239-11.143,53.6a6.879,6.879,0,0,1-5.51,6.232h0a6.859,6.859,0,0,1-1.33.131Z" transform="translate(-239 -165.659)" fill="#e4e4e4"/>
    <path id="Path_145" data-name="Path 145" d="M377.322,273.464a14.788,14.788,0,0,1,.778,2.2l66,22.428,12.754-11.142L476.187,304l-20.661,21.918a11.245,11.245,0,0,1-13.3,2.3L371.6,292.139a14.755,14.755,0,1,1,5.721-18.675Z" transform="translate(-239 -165.656)" fill="#ffb6b6"/>
    <path id="Path_146" data-name="Path 146" d="M444.24,294.511a6.319,6.319,0,0,1,2.222-4.775l24.167-20.586a17.567,17.567,0,1,1,26.529,23.034l-17.21,26.8a6.325,6.325,0,0,1-9.483,1.346L446.4,299.314a6.318,6.318,0,0,1-2.164-4.8Z" transform="translate(-239 -165.661)" fill="#e4e4e4"/>
    <path id="Path_147" data-name="Path 147" d="M536.883,327.42a6.319,6.319,0,0,1-3.216-4.171l-7.145-30.932a17.567,17.567,0,0,1,32.662-12.942l15.864,27.617a6.325,6.325,0,0,1-3.172,9.038l-29.734,11.681a6.318,6.318,0,0,1-5.26-.29Z" transform="translate(-239 -165.651)" fill="#e4e4e4"/>
    <ellipse id="Ellipse_24" data-name="Ellipse 24" cx="11.253" cy="15.005" rx="11.253" ry="15.005" transform="translate(291.447 16.369) rotate(-66.869)" fill="#2f2e41"/>
    <circle id="Ellipse_25" data-name="Ellipse 25" cx="30.775" cy="30.775" r="30.775" transform="translate(231.054 57.773) rotate(-61.337)" fill="#ffb6b6"/>
    <path id="Path_148" data-name="Path 148" d="M528.7,176.141H493.5a10.228,10.228,0,0,0-10.321,9.334,10,10,0,0,0,9.978,10.666h0a10,10,0,0,1,10,10v41h55V205.6A29.457,29.457,0,0,0,528.7,176.141Z" transform="translate(-239 -165.859)" fill="#2f2e41"/>
    <path id="Path_149" data-name="Path 149" d="M702.224,734.141h-381a1,1,0,0,1,0-2h381a1,1,0,0,1,0,2Z" transform="translate(-239 -164.859)" fill="#cacaca"/>
  </g>
</svg>
